<svg id="Слой_1" data-name="Слой 1" xmlns="http://www.w3.org/2000/svg" viewBox="0 0 452.61 132.25"><defs><style>.cls-1{fill:#9c63a4;}.cls-2{fill:#2db3b8;}.cls-3{fill:#060504;}</style></defs><path class="cls-1" d="M154.88,457.9c-.25.92-.54,1.86-.87,2.81-.42,1.34-3.58,11.09-3.74,11.72q-1.12,3.35-2.5,6.58c-.91,2.16-3.57,8.87-4.23,10.2l-.75,1.72c-.25.57-2.95,6.08-3.62,7.76s-1.37,3.39-2.11,5.1q-.63,1.62-1.38,3.24c-.49,1.08-1,2.16-1.49,3.24-.58,1.4-1.19,2.77-1.81,4.1s-1.27,2.67-1.93,4c-.42.9-5.9,12.74-6.23,13.25a1.33,1.33,0,0,1-.63.38,1.38,1.38,0,0,1-.62-.19c-.25-.12-.37-.28-.37-.47a8.77,8.77,0,0,1,.43-3.29c.29-.54,14.27-37.6,14.77-38.36.25-.51.48-1,.69-1.48s.39-1,.56-1.48a2.61,2.61,0,0,0,.12-1.33,1.48,1.48,0,0,0-.49-.57.84.84,0,0,0-.75-.2,1.67,1.67,0,0,1-.63.1,1.65,1.65,0,0,0-.62.1c-.83.18-1.62.38-2.37.57a21.43,21.43,0,0,0-2.37.76c-2.41.82-4.82,1.62-7.23,2.38s-4.82,1.49-7.23,2.19a2.25,2.25,0,0,1-.62.15,1.28,1.28,0,0,0-.62.23,40.46,40.46,0,0,1-4.3,1.48c-1.46.42-2.89.88-4.3,1.39s-2.81.9-4.18,1.38-2.72,1-4,1.57a6.12,6.12,0,0,1-.75.33,2.4,2.4,0,0,0-.62.34,8,8,0,0,0-1,.85,7.65,7.65,0,0,1-.56.91,8.42,8.42,0,0,0-.56.9q-1.12,2.3-2.18,4.53t-2.06,4.53a28.24,28.24,0,0,0-1.74,3.48c-.5,1.18-1,2.4-1.38,3.67a4.14,4.14,0,0,1-.31.86,7.31,7.31,0,0,1-.43.76,3.2,3.2,0,0,1-1.75,1,2.06,2.06,0,0,1-1.49-.19,1.5,1.5,0,0,1-.88-1,1.29,1.29,0,0,1-.37-1c.08-.82.19-1.63.31-2.43a9.62,9.62,0,0,1,.69-2.34A34.31,34.31,0,0,0,85.64,509a21.79,21.79,0,0,1,1.43-3.24,12.58,12.58,0,0,1,.5-1.19,2.81,2.81,0,0,0,.25-1.19.58.58,0,0,0-.25-.67,1,1,0,0,1-.44-.09.29.29,0,0,0-.31,0c-.25.06-.48.11-.69.14a2.23,2.23,0,0,0-.68.24c-.75.32-1.5.65-2.25,1s-1.53.68-2.36,1a12.82,12.82,0,0,1-3.25,1.05,5.33,5.33,0,0,1-2.24.1,5.62,5.62,0,0,1-1.56-.34,1.53,1.53,0,0,1-.81-1,1,1,0,0,0-.12-.43c-.08-.16-.17-.33-.25-.52s-.06-.3.06-.53a1,1,0,0,1,.44-.43,6.06,6.06,0,0,1,1.12-.47c.91-.38,1.76-.76,2.55-1.15s1.6-.82,2.44-1.33a11.18,11.18,0,0,1,1.43-.72c.54-.22,1.06-.46,1.56-.71,1.41-.57,2.78-1.14,4.11-1.72s2.7-1.17,4.11-1.81l1.13-.57a2.45,2.45,0,0,0,1.12-1.05,11.28,11.28,0,0,0,.81-1.43,12.53,12.53,0,0,0,.56-1.43c.41-1.08.85-2.17,1.31-3.29s.93-2.24,1.43-3.38c.25-.57.48-1.16.69-1.76s.39-1.23.56-1.86c.41-1.46.83-2.91,1.25-4.34a27.13,27.13,0,0,1,1.62-4.24,2.26,2.26,0,0,0,.31-.71,3.14,3.14,0,0,1,.31-.67,9.1,9.1,0,0,1,1.8-2.57c.75-.31,1.4-.88,2.31-.43l.38.19a2,2,0,0,1,1.24,1,3.12,3.12,0,0,1,.38,2.28,44,44,0,0,1-1.5,5.05l-.75,2.29a14.15,14.15,0,0,1-1,2.29q-1.5,4.2-3.24,8.58a2.58,2.58,0,0,0-.25,1.05,1,1,0,0,0,1,.66,3,3,0,0,1,.69-.09,2.54,2.54,0,0,0,.68-.1c1.5-.31,3-.69,4.43-1.14s2.88-.92,4.3-1.43q7.11-2.28,14.21-4.29c1.66-.51,3.28-1,4.86-1.43s3.16-.92,4.74-1.43c1-.32,1.95-.63,2.87-.95s1.87-.64,2.86-1a.47.47,0,0,0,.38-.14,2.68,2.68,0,0,1,.37-.33c.33-.51.58-.92.75-1.24s2.62-9.53,2.86-10.29,1.06-3.64,1.19-4.24,1.89-8.79,2.56-10.25a2.15,2.15,0,0,1,1-.86,2.77,2.77,0,0,1,1.56-.28,3.53,3.53,0,0,1,2.12,1,3.24,3.24,0,0,1,.75,1.62v1.24A7.69,7.69,0,0,1,154.88,457.9Z" transform="translate(-71.77 -450.47)"/><path class="cls-1" d="M123.74,532.79h-.15a2.17,2.17,0,0,1-1-.28,1.32,1.32,0,0,1-.8-1.12,9.52,9.52,0,0,1,.53-3.71c.16-.36,2.49-6.46,4.94-12.91,6.71-17.62,9.56-25,9.86-25.51s.43-.9.63-1.36.37-.93.54-1.41a2.18,2.18,0,0,0,.11-.85h0s-.08-.08-.22-.19-.54.06-.9.06a.72.72,0,0,0-.33.05l-2.46.6a20.55,20.55,0,0,0-2.28.73c-2.45.84-4.86,1.63-7.28,2.4s-4.83,1.5-7.25,2.2a4.13,4.13,0,0,1-.74.17.53.53,0,0,0-.25.08l-.18.1a43.58,43.58,0,0,1-4.38,1.51c-1.42.4-2.85.86-4.25,1.36s-2.82.91-4.18,1.39-2.7,1-4,1.55c-.23.12-.5.24-.77.35a1.32,1.32,0,0,0-.43.22,7.19,7.19,0,0,0-.83.69c-.18.32-.37.62-.57.91a6.87,6.87,0,0,0-.51.81c-.73,1.5-1.46,3-2.16,4.5s-1.39,3-2,4.5a31.36,31.36,0,0,0-1.74,3.48c-.49,1.14-.94,2.36-1.35,3.6a5.23,5.23,0,0,1-.35,1,6.65,6.65,0,0,1-.49.85,4,4,0,0,1-2.21,1.38,2.82,2.82,0,0,1-2-.26A2.26,2.26,0,0,1,83,518.38a2.11,2.11,0,0,1-.46-1.34c.09-.92.2-1.74.33-2.55a9.79,9.79,0,0,1,.74-2.53c.49-1.07.92-2.14,1.28-3.18a23,23,0,0,1,1.49-3.36,11.23,11.23,0,0,1,.48-1.15,1.94,1.94,0,0,0,.17-.82l-.08,0c-.25.07-.48.11-.7.15a1.42,1.42,0,0,0-.45.16c-.78.33-1.53.67-2.26,1s-1.57.7-2.42,1a13.27,13.27,0,0,1-3.39,1.09,5.86,5.86,0,0,1-2.5.1,5.53,5.53,0,0,1-1.74-.39,2.22,2.22,0,0,1-1.25-1.48l0-.24a6.18,6.18,0,0,1-.31-.64A1.18,1.18,0,0,1,72,503a1.66,1.66,0,0,1,.84-.78,6.61,6.61,0,0,1,1.2-.5c.8-.34,1.64-.72,2.41-1.09a26.83,26.83,0,0,0,2.37-1.3,11,11,0,0,1,1.54-.77q.78-.32,1.5-.69c1.47-.6,2.83-1.17,4.16-1.74s2.69-1.17,4.1-1.8l1.09-.56a1.63,1.63,0,0,0,.76-.66,13.63,13.63,0,0,0,.82-1.45,11,11,0,0,0,.52-1.34c.43-1.12.87-2.23,1.33-3.34s.94-2.25,1.44-3.4c.25-.56.46-1.12.67-1.71s.38-1.18.54-1.8c.42-1.48.83-2.92,1.25-4.36a28.6,28.6,0,0,1,1.67-4.35,2.09,2.09,0,0,0,.25-.54,2,2,0,0,1,.28-.68l.08-.14h0a8.11,8.11,0,0,1,2.21-3v0l.4-.19a2.63,2.63,0,0,1,2.55-.23l.39.2a2.71,2.71,0,0,1,1.6,1.4,3.9,3.9,0,0,1,.44,2.79,45.33,45.33,0,0,1-1.53,5.16l-.74,2.27a15.31,15.31,0,0,1-1,2.41c-.94,2.66-2,5.55-3.21,8.5a2,2,0,0,0-.18.6.28.28,0,0,0,.13,0c.44-.1.76,0,1.25-.17,1.5-.32,3-.7,4.39-1.13s2.9-.92,4.26-1.42c4.79-1.54,9.58-3,14.27-4.3q2.48-.76,4.86-1.44c1.57-.43,3.14-.91,4.71-1.42,1-.31,1.94-.62,2.85-.94s1.88-.64,2.88-1l.14,0,.26-.23a10.6,10.6,0,0,0,.64-1.07c0-.17.81-2.92,1.42-5.13.65-2.39,1.27-4.65,1.4-5,.24-.73,1-3.59,1.16-4.15,0-.09,1.87-8.79,2.61-10.41a2.91,2.91,0,0,1,1.44-1.25,3.58,3.58,0,0,1,2-.35,4.32,4.32,0,0,1,2.63,1.32,4.1,4.1,0,0,1,.91,2v1.35a8.24,8.24,0,0,1-.27,2.92h0c-.25.92-.54,1.86-.89,2.87-.14.44-.62,1.95-1.2,3.73-1,3-2.42,7.54-2.52,7.93-.77,2.3-1.62,4.53-2.53,6.69-.33.77-.89,2.14-1.49,3.62-1.09,2.69-2.33,5.74-2.77,6.62l-.73,1.68c-.08.17-.36.77-.75,1.57-.9,1.87-2.4,5-2.86,6.17q-1,2.53-2.13,5.12c-.41,1.09-.88,2.19-1.37,3.26l-1.5,3.24c-.57,1.38-1.18,2.76-1.81,4.1s-1.27,2.68-1.94,4l-.39.84c-4.91,10.57-5.73,12.25-5.88,12.49a2,2,0,0,1-1,.69Zm-.36-1.65.12.05c.09,0,.12-.06.12-.07.09-.18,1.22-2.53,5.72-12.22l.4-.86c.67-1.34,1.31-2.67,1.93-4s1.22-2.68,1.79-4.07L135,506.7c.48-1,.94-2.11,1.35-3.19.76-1.74,1.46-3.43,2.12-5.11.48-1.21,1.94-4.25,2.91-6.26.37-.78.65-1.36.72-1.53l.75-1.72c.43-.86,1.71-4,2.74-6.54.6-1.49,1.16-2.87,1.49-3.64.9-2.13,1.73-4.32,2.48-6.52.08-.35,1.15-3.67,2.53-8l1.2-3.74c.35-1,.63-1.9.86-2.78h0a6.84,6.84,0,0,0,.23-2.44v-1.32a2.52,2.52,0,0,0-.57-1.12,2.74,2.74,0,0,0-1.66-.77,2,2,0,0,0-1.07.22,1.45,1.45,0,0,0-.7.51c-.54,1.19-2.11,8.26-2.48,10.05-.13.62-1,3.52-1.21,4.32-.11.35-.76,2.69-1.38,5-1,3.47-1.41,5.13-1.5,5.37-.21.42-.48.85-.82,1.39l-.18.19a2.66,2.66,0,0,0-.26.22,1.15,1.15,0,0,1-.82.41l-2.76.92q-1.38.48-2.88,1-2.38.76-4.77,1.44c-1.57.44-3.19.92-4.84,1.42-4.68,1.32-9.45,2.76-14.2,4.29-1.36.49-2.82,1-4.31,1.43s-3,.84-4.49,1.16c-.42.11-.76,0-1.35.19l-.19,0a1.76,1.76,0,0,1-1.73-1.18l0-.27a3.37,3.37,0,0,1,.32-1.37c1.15-2.9,2.24-5.78,3.22-8.52a15.08,15.08,0,0,0,1-2.27l.74-2.29a41.44,41.44,0,0,0,1.48-5,2.35,2.35,0,0,0-.28-1.7,1.31,1.31,0,0,0-.82-.71l-.48-.24c-.34-.16-.57-.07-1.15.23l-.42.2a10.91,10.91,0,0,0-1.43,2,2.81,2.81,0,0,1-.19.43,1.48,1.48,0,0,0-.11.22,3.2,3.2,0,0,1-.42,1,27,27,0,0,0-1.53,4c-.42,1.43-.83,2.88-1.25,4.33-.17.64-.36,1.28-.57,1.9s-.45,1.24-.71,1.82c-.49,1.14-1,2.27-1.43,3.37s-.88,2.2-1.3,3.27a12.11,12.11,0,0,1-.58,1.49,13.75,13.75,0,0,1-.86,1.52,3,3,0,0,1-1.41,1.31l-1.14.58c-1.45.66-2.83,1.26-4.16,1.83s-2.71,1.15-4.13,1.73c-.45.23-1,.48-1.55.71a10.3,10.3,0,0,0-1.33.66c-.84.51-1.68,1-2.49,1.37s-1.67.77-2.6,1.16a6.81,6.81,0,0,0-1.07.45l-.07.09.16.32a1.85,1.85,0,0,1,.21.64c.13.35.29.42.34.44a4.28,4.28,0,0,0,1.32.27,4.5,4.5,0,0,0,2-.07,12,12,0,0,0,3.12-1c.87-.33,1.64-.66,2.37-1s1.51-.69,2.27-1A2.68,2.68,0,0,1,86,502l.51-.11a1.11,1.11,0,0,1,.94,0h.27l.3.18a1.35,1.35,0,0,1,.56,1.4,3.3,3.3,0,0,1-.33,1.42c-.15.33-.31.71-.46,1.13a22,22,0,0,0-1.43,3.22c-.38,1.09-.83,2.21-1.34,3.31a8.16,8.16,0,0,0-.62,2.13c-.13.78-.23,1.58-.31,2.39a.46.46,0,0,0,.15.32l.16.16,0,.23c0,.18.31.34.46.42a1.29,1.29,0,0,0,.95.13,2.43,2.43,0,0,0,1.33-.79,6.39,6.39,0,0,0,.34-.61,4.2,4.2,0,0,0,.26-.71c.43-1.33.9-2.59,1.4-3.78A33.05,33.05,0,0,1,91,508.92c.63-1.44,1.32-3,2-4.46s1.43-3,2.18-4.54a8.44,8.44,0,0,1,.64-1,7.32,7.32,0,0,0,.5-.81l.1-.15a7.93,7.93,0,0,1,1.11-1,3.54,3.54,0,0,1,.82-.44,4.93,4.93,0,0,0,.67-.3c1.38-.6,2.76-1.13,4.15-1.61s2.78-.95,4.2-1.39,2.87-1,4.33-1.39a42.88,42.88,0,0,0,4.13-1.42,2.06,2.06,0,0,1,.91-.32,1.71,1.71,0,0,0,.43-.1c2.47-.72,4.87-1.44,7.28-2.21s4.8-1.55,7.21-2.37a19.47,19.47,0,0,1,2.43-.78c.75-.2,1.55-.39,2.39-.58.23-.1,1-.11,1.14-.16a1.65,1.65,0,0,1,1.5.3,2.23,2.23,0,0,1,.74.88,3.28,3.28,0,0,1-.09,1.87c-.18.56-.38,1.07-.59,1.57s-.45,1-.71,1.51c-.44.85-5.82,15-9.75,25.29-3.85,10.11-4.91,12.88-5,13.1a10.51,10.51,0,0,0-.39,2.61ZM73.27,503.45a.73.73,0,0,0,0,.12A.61.61,0,0,0,73.27,503.45Z" transform="translate(-71.77 -450.47)"/><path class="cls-1" d="M169.21,507.8a12.27,12.27,0,0,1-3.11-.39,2.85,2.85,0,0,1-.5-.24,3.71,3.71,0,0,0-.5-.23,2.44,2.44,0,0,1-1-2,4.14,4.14,0,0,1,.38-1,1.09,1.09,0,0,0,.12-.86c0-.25-.17-.38-.5-.38a.4.4,0,0,1-.25.09.42.42,0,0,0-.24.1,7.3,7.3,0,0,1-1.75,1.43c-.42.25-.79.48-1.12.66a11.6,11.6,0,0,1-1.12.58,12.44,12.44,0,0,0-1.19.81,5.27,5.27,0,0,1-1.31.71,10.8,10.8,0,0,1-6.48,1.34,4.41,4.41,0,0,1-2.24-.77c-5.62-6.83,16.7-20.29,22.62-17.31,1.26.63,3.39,4.13,2.81,5a13.75,13.75,0,0,1-.87,1.52,6,6,0,0,0-.75,1.53c-.17.32-.34.62-.5.9s-.33.59-.5.91l-.75,1.53a12.91,12.91,0,0,0-.62,1.43v.66c0,.07.08.15.25.24a1,1,0,0,0,.5.14,4.39,4.39,0,0,0,1-.09c.67-.19,1.35-.41,2.06-.67s1.39-.51,2.06-.76l3.11-1.58c1.08-.53,2.12-1.06,3.12-1.57a36.46,36.46,0,0,1,4.24-1.43A3.75,3.75,0,0,1,187,498a.8.8,0,0,1,.5.19.5.5,0,0,1,.25.38l-.75.86-1.49,1.14q-.75.57-1.5,1.05a32.76,32.76,0,0,0-3.24,1.81c-1,.64-2,1.24-3.12,1.81-.58.32-1.2.62-1.87.91s-1.33.59-2,.9A12.26,12.26,0,0,1,169.21,507.8ZM166.91,492c-3.28-.63-11.19,5.65-12.22,7.06-1.51,2.08.81,5.2,5.55,2.82,1-.52,2.09-1.25,3.23-1.92C167.62,497.48,170.79,492.74,166.91,492Z" transform="translate(-71.77 -450.47)"/><path class="cls-1" d="M151.74,509.19c-.38,0-.77,0-1.16,0h0a5.15,5.15,0,0,1-2.58-.88l-.2-.17c-1.75-2.13-1.34-5,1.16-8.15,5-6.24,17.66-12.77,22.42-10.36,1.25.63,2.82,3,3.22,4.54a1.92,1.92,0,0,1-.11,1.61,12.84,12.84,0,0,1-.87,1.52,6,6,0,0,0-.66,1.35c-.22.44-.39.75-.56,1s-.33.58-.49.89l-.73,1.5c-.22.43-.4.85-.55,1.23v.12a3.29,3.29,0,0,0,.77-.07c.62-.18,1.29-.4,2-.65l2-.75c.92-.48,2-1,3-1.55s2.12-1.06,3.11-1.57a36.14,36.14,0,0,1,4.4-1.48,2.25,2.25,0,0,1,2,.23,1.22,1.22,0,0,1,.56,1v.29l-.94,1.08L186,501.17c-.52.4-1,.76-1.55,1.09a35.1,35.1,0,0,0-3.24,1.81c-1,.64-2.07,1.26-3.17,1.84-.59.33-1.24.64-1.93.94s-1.31.58-2,.89a13.07,13.07,0,0,1-4.95.84,13.4,13.4,0,0,1-3.31-.41,3.72,3.72,0,0,1-.69-.32,2.87,2.87,0,0,0-.4-.18l-.25-.16a3.16,3.16,0,0,1-1.23-2.68,5,5,0,0,1,.25-.85,6.8,6.8,0,0,1-1.35,1c-.38.24-.76.46-1.1.66s-.75.4-1.19.6-.68.45-1,.72a5.74,5.74,0,0,1-1.51.82A10.89,10.89,0,0,1,151.74,509.19ZM148.92,507a3.5,3.5,0,0,0,1.72.58,10.17,10.17,0,0,0,6.08-1.22,5.19,5.19,0,0,0,1.24-.67c.39-.3.81-.58,1.24-.85s.83-.41,1.15-.59l1.1-.65a6.06,6.06,0,0,0,1.58-1.29,1.33,1.33,0,0,1,.67-.34l.13-.11h.27a1.17,1.17,0,0,1,1.28,1,1.86,1.86,0,0,1-.21,1.36,3.71,3.71,0,0,0-.3.85c0,.36.32.82.67,1.17a4.51,4.51,0,0,1,.44.22,2.87,2.87,0,0,0,.4.19,11.88,11.88,0,0,0,2.83.33,11.69,11.69,0,0,0,4.32-.7c.63-.31,1.31-.61,2-.9s1.23-.57,1.79-.88c1.08-.57,2.11-1.17,3.08-1.78a32.19,32.19,0,0,1,3.31-1.85c.41-.27.89-.61,1.37-1l1.48-1.13-.19,0a36.7,36.7,0,0,0-4.14,1.4l-3.05,1.55-3.12,1.57c-.74.29-1.43.54-2.15.8s-1.42.48-2.1.68a2.73,2.73,0,0,1-2.1-.12,1.09,1.09,0,0,1-.65-.92l0-.94q.27-.71.66-1.5l.74-1.52c.19-.35.36-.67.54-1s.31-.55.47-.86a6.67,6.67,0,0,1,.79-1.59,13.63,13.63,0,0,0,.82-1.44c.16-.69-1.49-3.49-2.46-4-1.26-.64-3.54-.36-6.16.52a5.42,5.42,0,0,1,2.56-.29h0a2.56,2.56,0,0,1,2.35,2c.41,2.3-2.5,5.54-5.54,7.35l-1.12.69c-.75.46-1.45.9-2.16,1.26-3.2,1.61-5.43.91-6.44-.29a2.93,2.93,0,0,1-.09-3.69,31.69,31.69,0,0,1,9.88-6.88c-4.88,1.77-10.77,5.48-13.76,9.22C148.79,502.66,147.47,505.1,148.92,507Zm17.46-14.27c-3,0-10.13,5.51-11,6.78a1.39,1.39,0,0,0,0,1.76c.6.71,2.15,1.1,4.55-.11.64-.32,1.31-.74,2-1.18.37-.24.76-.48,1.15-.71,3-1.79,5-4.5,4.8-5.73,0-.15-.1-.58-1.11-.78h0A2.34,2.34,0,0,0,166.38,492.73Z" transform="translate(-71.77 -450.47)"/><path class="cls-1" d="M213.47,492.83a3.43,3.43,0,0,0-.44-.43l-.44-.33a6.59,6.59,0,0,0-3.61-1.62,23.7,23.7,0,0,0-3.3-.15,12.9,12.9,0,0,0-3.18.53l-1.87.67a28.34,28.34,0,0,0-5.61,2.66,2.78,2.78,0,0,1-.62.34l-.75.24c-.17.13-.3.13-.38,0s-.25-.22-.25-.29a2.12,2.12,0,0,1,.13-.86c.41-.57.83-1.19,1.25-1.85a21,21,0,0,1,1.37-2l.74-1.33a.84.84,0,0,0-.25-.86,2.33,2.33,0,0,0-1-.57,7.91,7.91,0,0,0-3.49,0,2.5,2.5,0,0,0-.87.57c-.17.32-.32.62-.44.9a1.29,1.29,0,0,0-.06.91,2.63,2.63,0,0,1-.25,1,4.18,4.18,0,0,1-.38.81c-.16.29-.33.56-.5.81-.49.7-.95,1.39-1.37,2a11,11,0,0,0-1,2.05l-.75,1.14c-.58,1.09-1.19,2.13-1.81,3.15l-1.93,3.15-4.36,7.81c-.92,1.65-1.81,3.31-2.68,5s-1.69,3.33-2.43,5.05l-.69,1.95c-.21.61-.39,1.23-.56,1.86a4.2,4.2,0,0,1-.06.72,3.46,3.46,0,0,0-.07.62,13.08,13.08,0,0,0-.74,2.57,4,4,0,0,0-.25,2.76c0,.26.12.39.37.39a1.36,1.36,0,0,0,.62,0,3,3,0,0,0,.63-.14l.62-.67a13.91,13.91,0,0,0,1.06-1.9q.44-1,.93-2a1.91,1.91,0,0,0,.32-.71,1.88,1.88,0,0,1,.31-.71,13.85,13.85,0,0,0,.87-1.82,20,20,0,0,1,.87-1.9,18.61,18.61,0,0,1,1.75-3.91,12.72,12.72,0,0,0,.87-1.57c.25-.54.5-1.07.75-1.58l1.24-2.47,2.25-3.72q1.13-1.9,2.49-3.77c.92-1.24,2.15-2.83,3.23-4a27.15,27.15,0,0,1,5.13-4.06,47.86,47.86,0,0,1,6.35-3.48,15.48,15.48,0,0,1,5-1.33,5.62,5.62,0,0,1,1.62.19c.75.26,1.34.52,1.34,1,2.16,4.29-14.75,15.25-19.53,10-.19-.22-.27.24-.51.42a1.68,1.68,0,0,0-.62.57,6,6,0,0,0-1,1.81,1.2,1.2,0,0,0,.5,1.14.51.51,0,0,0,.31.24,1.51,1.51,0,0,1,.44.24,5,5,0,0,0,2.61.86h.75a18.14,18.14,0,0,0,5.11-.76l2.62-.86c.75-.32,1.5-.65,2.24-1a16.1,16.1,0,0,0,2.12-1.19,2.43,2.43,0,0,1,.88-.48,17.89,17.89,0,0,0,1.62-1,18.91,18.91,0,0,0,1.49-1.19,8.13,8.13,0,0,1,1.62-1.53l1.31-1.38c.46-.48.89-1,1.31-1.48a2.47,2.47,0,0,1,.31-.52c.13-.16.27-.37.44-.62a4.6,4.6,0,0,0,.87-2A2.31,2.31,0,0,0,213.47,492.83Z" transform="translate(-71.77 -450.47)"/><path class="cls-1" d="M171.35,533a1.9,1.9,0,0,1-.54-.07,1.09,1.09,0,0,1-1-1,4.87,4.87,0,0,1,.27-3.11,15.07,15.07,0,0,1,.72-2.51,4.88,4.88,0,0,1,.08-.61,3.36,3.36,0,0,0,.05-.57l0-.2c.17-.65.36-1.29.58-1.91l.69-2q1.16-2.66,2.47-5.16c.88-1.65,1.77-3.31,2.69-5l4.36-7.82,1.95-3.17c.62-1,1.21-2,1.79-3.11l.73-1.12a11.48,11.48,0,0,1,1-2.11c.42-.68.89-1.38,1.4-2.09.14-.22.3-.48.45-.75a3.19,3.19,0,0,0,.31-.66,2.84,2.84,0,0,0,.21-.64,2.11,2.11,0,0,1,.13-1.29c.13-.3.28-.62.46-.95l.1-.15a3.32,3.32,0,0,1,1.14-.78l.16-.05a9.11,9.11,0,0,1,3.82,0,3.07,3.07,0,0,1,1.39.79,1.62,1.62,0,0,1,.45,1.6l-.07.19-.75,1.33c-.55.72-1,1.35-1.39,2s-.74,1.16-1.12,1.68l.18-.06a1.68,1.68,0,0,0,.41-.22,29.51,29.51,0,0,1,5.84-2.79l1.87-.67a13.59,13.59,0,0,1,3.41-.57,25.28,25.28,0,0,1,3.42.15,7.46,7.46,0,0,1,4.05,1.81l.39.3a4.31,4.31,0,0,1,.54.53,3.12,3.12,0,0,1,.81,2.83,5.48,5.48,0,0,1-1,2.29c-.14.21-.3.44-.43.61a1,1,0,0,0-.2.34l-.12.19c-.43.53-.88,1-1.35,1.52l-1.3,1.38a8.3,8.3,0,0,0-1.57,1.46,16.22,16.22,0,0,1-1.67,1.36,17.78,17.78,0,0,1-1.7,1l-.18.07a1.72,1.72,0,0,0-.59.34,17.76,17.76,0,0,1-2.26,1.28c-.76.35-1.52.69-2.27,1l-2.68.88a18.89,18.89,0,0,1-5.36.8h-.75a5.83,5.83,0,0,1-3-1,1,1,0,0,0-.23-.15,1.23,1.23,0,0,1-.65-.42,2,2,0,0,1-.74-1.72v0c-.72,1-1.4,2-2,3.12l-2.24,3.72-1.22,2.43-.74,1.54a12.43,12.43,0,0,1-.93,1.68,18.28,18.28,0,0,0-1.65,3.71c-.37.74-.65,1.36-.89,2a12.61,12.61,0,0,1-.93,1.92,1.29,1.29,0,0,0-.21.46,2.82,2.82,0,0,1-.43,1l-.88,1.89a14.11,14.11,0,0,1-1.12,2l-1,1a3.14,3.14,0,0,1-.8.19Zm0-1.57a.61.61,0,0,0,.18,0,1.43,1.43,0,0,0,.28-.05l.49-.51a17.41,17.41,0,0,0,.92-1.7q.44-1,.93-2a1.83,1.83,0,0,0,.26-.52,2.56,2.56,0,0,1,.42-1,13,13,0,0,0,.8-1.67c.26-.66.57-1.33.91-2a19,19,0,0,1,1.76-3.94,11.82,11.82,0,0,0,.84-1.5q.38-.83.75-1.59l1.26-2.49,2.27-3.77a45.07,45.07,0,0,1,2.53-3.82c.55-.75,2-2.64,3.28-4.1a27.22,27.22,0,0,1,5.28-4.19,48.37,48.37,0,0,1,6.46-3.54,16.25,16.25,0,0,1,5.23-1.4,6.35,6.35,0,0,1,1.93.22c.63.22,1.74.6,1.88,1.57,1.06,2.49-2.15,5.86-5.56,8.21-4.92,3.39-11.46,5.65-14.77,3h0l-.2.11s0,0-.29.33a5.36,5.36,0,0,0-.82,1.45c0,.21.06.31.1.33l.23.2a2.17,2.17,0,0,1,.6.34,4.19,4.19,0,0,0,2.14.7h.75a17.28,17.28,0,0,0,4.89-.74l2.6-.85c.68-.29,1.41-.62,2.15-1a16.08,16.08,0,0,0,2-1.14,3.34,3.34,0,0,1,1-.55,16.18,16.18,0,0,0,1.48-.91,16.88,16.88,0,0,0,1.42-1.14,8.74,8.74,0,0,1,1.67-1.56c.32-.36.75-.82,1.21-1.3s.82-.89,1.21-1.35a3,3,0,0,1,.36-.59c.12-.15.25-.34.4-.57a3.86,3.86,0,0,0,.76-1.69,1.53,1.53,0,0,0-.43-1.45h0a2.16,2.16,0,0,0-.32-.32l-.45-.34a6,6,0,0,0-3.24-1.47,21.56,21.56,0,0,0-3.17-.13,12.2,12.2,0,0,0-3,.49l-1.83.66a28.23,28.23,0,0,0-5.46,2.59,3.12,3.12,0,0,1-.75.4,6.51,6.51,0,0,1-.71.23,1,1,0,0,1-.71.14l-.35-.06-.18-.23a1.13,1.13,0,0,1-.49-.86,2.88,2.88,0,0,1,.19-1.17l.08-.15c.41-.56.81-1.16,1.22-1.81a21.79,21.79,0,0,1,1.42-2l.59-1.07a1.24,1.24,0,0,0-.7-.46,7.27,7.27,0,0,0-3,0,3,3,0,0,0-.48.28c-.14.27-.26.51-.36.75a.55.55,0,0,0,0,.4l0,.2a3.29,3.29,0,0,1-.31,1.27,5.63,5.63,0,0,1-.42.89c-.17.3-.35.58-.52.84-.5.71-.95,1.38-1.36,2a10.43,10.43,0,0,0-.93,1.9l-.08.16-.74,1.14c-.56,1-1.17,2.1-1.8,3.13l-1.93,3.15-4.35,7.78q-1.37,2.48-2.67,4.94c-.86,1.64-1.67,3.32-2.41,5l-.66,1.9c-.19.55-.36,1.12-.52,1.71a4.54,4.54,0,0,1-.07.75,2.8,2.8,0,0,0,0,.48l-.06.29a12.45,12.45,0,0,0-.7,2.42l-.05.15A3.36,3.36,0,0,0,171.31,531.47Zm17.23-24.39h0Zm1.35-4.29.36.34c2.33,2.55,8.57.48,13.27-2.75,3.47-2.39,5.6-5.12,5-6.36l-.09-.17v-.19s-.2-.07-.81-.28a5.16,5.16,0,0,0-1.36-.15,15.14,15.14,0,0,0-4.66,1.26,47.13,47.13,0,0,0-6.26,3.43,25.76,25.76,0,0,0-5,3.94c-.27.3-.55.63-.82,1Z" transform="translate(-71.77 -450.47)"/><path class="cls-1" d="M259.84,520.57l-2,3.78c-4.69,9.88-16,22.92-21.61,21.85a5.81,5.81,0,0,1-6-8.23c2.13-5.56,14.25-18.55,24.06-24.55,1.33-.82,7.63-4.65,8.93-4.83.81-.11,2.52-6.52,1.8-7.35a2.23,2.23,0,0,1-.63.23,1.52,1.52,0,0,0-.5.24l-1.74,1.15L260.33,504c-.83.51-1.62.95-2.36,1.34a7.93,7.93,0,0,1-2.5.76,8.68,8.68,0,0,1-4.42,0c-1.29-.38-1.71-1.39-2.67-3-1.1-3.44,5.07-11.57,9.34-14.33a3.16,3.16,0,0,1,3.61,0c.46.42-3.07,5.24-4.35,6.95a20.8,20.8,0,0,0-2.65,4c.42.32,1,1.12,1.27,1s.75-.08,1-.33a65.55,65.55,0,0,0,10.84-8.2c.83-.7,1.75-1.4,2.74-2.1,1.35-.86,3.42-.15,3.49.76-.17.83-4.61,13.32-5.36,15.16.08.06,0,.14,0,.2l.09.56a6,6,0,0,1,1.24-.24c.42,0,1.05-.3,1.38-.3,0,.06,1.34,0,1.34,0-.58.38-2.57,1.22-2.73,1.35a8,8,0,0,0-3.91,3.07,21.78,21.78,0,0,0-2.18,3.71c-.67,1-1.13,1.91-1.75,2.95s-1.41,2.2-2,3.15m-.5-6.5c-2.72-3.58-29.38,23.52-23.57,27.28.66.44.57.42,1.67.42C239.69,541.78,262.27,517.46,259.34,514.08Z" transform="translate(-71.77 -450.47)"/><path class="cls-1" d="M235.42,547.06a7,7,0,0,1-5.14-2.48,6.65,6.65,0,0,1-.85-6.89c2.19-5.72,14.41-18.85,24.38-24.94,4.82-2.95,7.85-4.59,9-4.9a16.44,16.44,0,0,0,1.5-5.55l0,0-3.54,2.32c-.85.52-1.66,1-2.44,1.37a8.35,8.35,0,0,1-2.74.84,9.29,9.29,0,0,1-4.75,0c-1.41-.42-2-1.43-2.75-2.71l-.44-.78c-1.31-4.08,5.59-12.61,9.66-15.23a3.92,3.92,0,0,1,4.57.1c.54.51,1,.95-4.27,8l-.47.63a16.37,16.37,0,0,0-1.83,2.77.46.46,0,0,0,.07.07l.3.3.11,0,.3-.07a66.27,66.27,0,0,0,10.82-8.19c.88-.74,1.82-1.46,2.83-2.17a3.72,3.72,0,0,1,3.55-.15,1.93,1.93,0,0,1,1.18,1.49V491l0,.11c-.18.91-4.13,11.94-5.2,14.78l.38,0a4.62,4.62,0,0,0,.55-.13,3.35,3.35,0,0,1,.89-.18l.78,0c.64,0,.86,0,1.11.24l.24.23v.76l-.36.23a20.37,20.37,0,0,1-2,1c-.37.17-.67.3-.78.37l-.16.08a7.29,7.29,0,0,0-3.54,2.79,21.17,21.17,0,0,0-2.1,3.58c-.48.74-.81,1.33-1.16,1.94-.2.35-.4.71-.63,1.08-.35.59-.74,1.21-1.13,1.81s-.6.92-.85,1.33l-2,3.75c-4.6,9.7-15.91,23.27-22.3,22.28A4.77,4.77,0,0,1,235.42,547.06Zm29.72-46.8.4.46c1.13,1.31-.76,6.64-.78,6.69-.5,1.33-.92,1.88-1.5,2s-3.12,1.35-8.63,4.72c-9.56,5.84-21.67,18.77-23.74,24.16a5.06,5.06,0,0,0,.6,5.33,5.11,5.11,0,0,0,4.55,1.85l.15,0,.14,0c4.93,1,16-11.48,20.75-21.42l2.07-3.81.41.22-.39-.24c.26-.44.57-.91.88-1.4s.77-1.18,1.11-1.75c.22-.37.41-.72.61-1.06.36-.63.71-1.25,1.15-1.92a21.66,21.66,0,0,1,2.2-3.74,9.22,9.22,0,0,1,2.66-2.56l-.19-1.22-.23-.18.23-.55c.78-1.93,4.75-13.11,5.26-14.83a1.51,1.51,0,0,0-.58-.3,2.16,2.16,0,0,0-1.67.17c-1,.67-1.85,1.36-2.65,2a66.3,66.3,0,0,1-10.88,8.23,2.06,2.06,0,0,1-1,.4l-.17,0c-.63.25-1.14-.26-1.62-.75a4.27,4.27,0,0,0-.41-.37l-.51-.4.29-.57a17.61,17.61,0,0,1,2.25-3.55l.47-.62a50,50,0,0,0,4.12-6.09,2.51,2.51,0,0,0-2.32.26c-4.22,2.72-9.84,10.43-9,13.36l.32.54c.73,1.25,1.06,1.76,1.84,2a8,8,0,0,0,4,0,7.11,7.11,0,0,0,2.31-.69c.74-.38,1.52-.82,2.31-1.31l3.47-2.27a1.84,1.84,0,0,1,.78-.35,1.79,1.79,0,0,0,.42-.17Zm2.44,5.87h0Zm-30.17,36.44a2.66,2.66,0,0,1-2-.47,2.94,2.94,0,0,1-1.22-3.29c1.16-6.93,17.92-24.34,23.59-25.74a1.91,1.91,0,0,1,2.13.51c.87,1,.26,2.72-.27,3.89-3.28,7.18-19.69,25.1-22.24,25.1Zm21.06-28.07c-2.43,0-15,10.82-20.78,20.23-1.9,3.12-2.46,5.35-1.5,6,.45.3.45.3,1.15.3,2.34-.63,19.39-18.88,21.32-25.24.23-.74.16-1.08.09-1.17l0,0A.49.49,0,0,0,258.47,514.5Z" transform="translate(-71.77 -450.47)"/><path class="cls-2" d="M165.8,565.47" transform="translate(-71.77 -450.47)"/><path class="cls-2" d="M252,564.42h0Z" transform="translate(-71.77 -450.47)"/><path class="cls-1" d="M245.08,495.26a2.86,2.86,0,0,0-.44-.43l-.43-.34a6.72,6.72,0,0,0-3.62-1.62,25.12,25.12,0,0,0-3.3-.14,12.87,12.87,0,0,0-3.18.52l-1.87.67a28.92,28.92,0,0,0-5.61,2.67,2.58,2.58,0,0,1-.62.34,7.16,7.16,0,0,1-.75.23c-.17.13-.29.13-.37,0s-.25-.22-.25-.28a2.35,2.35,0,0,1,.12-.86c.42-.57.83-1.19,1.25-1.86a19.61,19.61,0,0,1,1.37-2l.75-1.34a.85.85,0,0,0-.25-.85,2.34,2.34,0,0,0-1-.58,8.21,8.21,0,0,0-3.49,0,2.36,2.36,0,0,0-.87.58,9.26,9.26,0,0,0-.44.9,1.39,1.39,0,0,0-.06.9,2.43,2.43,0,0,1-.25,1,4.13,4.13,0,0,1-.38.81c-.16.29-.33.55-.49.81-.5.7-1,1.38-1.37,2.05a10.21,10.21,0,0,0-1,2.05l-.75,1.14c-.58,1.08-1.18,2.13-1.81,3.15s-1.26,2.06-1.93,3.14l-4.36,7.82q-1.38,2.47-2.68,5t-2.43,5c-.25.71-.48,1.35-.69,2s-.39,1.22-.56,1.86a4,4,0,0,1-.06.71,3.5,3.5,0,0,0-.06.62,13.31,13.31,0,0,0-.75,2.57,4.07,4.07,0,0,0-.25,2.77.33.33,0,0,0,.37.38,1.39,1.39,0,0,0,.63,0,2.45,2.45,0,0,0,.62-.15l.62-.66A14.63,14.63,0,0,0,205.5,532l.94-2a1.85,1.85,0,0,0,.31-.72,2,2,0,0,1,.31-.71,13.72,13.72,0,0,0,.87-1.81,19,19,0,0,1,.88-1.91,18.21,18.21,0,0,1,1.74-3.9,12.84,12.84,0,0,0,.87-1.58c.25-.54.5-1.06.75-1.57l1.25-2.48,2.24-3.72a43,43,0,0,1,2.5-3.76c.91-1.24,2.15-2.84,3.23-4.05a26.34,26.34,0,0,1,5.12-4.05,47.86,47.86,0,0,1,6.35-3.48,15.75,15.75,0,0,1,5-1.34,5.58,5.58,0,0,1,1.62.2c.75.25,1.34.51,1.34,1,2.17,4.29-14.75,15.24-19.53,10-.19-.21-.27.24-.51.42a1.88,1.88,0,0,0-.62.57,6,6,0,0,0-1,1.82,1.2,1.2,0,0,0,.5,1.14.51.51,0,0,0,.31.24,1.21,1.21,0,0,1,.44.24,4.94,4.94,0,0,0,2.62.85h.74a18.09,18.09,0,0,0,5.11-.76l2.62-.86c.75-.31,1.5-.65,2.25-1a15.5,15.5,0,0,0,2.11-1.19,2.89,2.89,0,0,1,.88-.48,17.85,17.85,0,0,0,1.62-1,15.67,15.67,0,0,0,1.49-1.2,9.08,9.08,0,0,1,1.62-1.52l1.31-1.38c.46-.48.9-1,1.31-1.48a2.24,2.24,0,0,1,.31-.52c.13-.16.27-.37.44-.63a4.5,4.5,0,0,0,.87-2A2.31,2.31,0,0,0,245.08,495.26Z" transform="translate(-71.77 -450.47)"/><path class="cls-1" d="M203,535.47a2.28,2.28,0,0,1-.54-.07,1.1,1.1,0,0,1-1-1,4.9,4.9,0,0,1,.27-3.12,14.45,14.45,0,0,1,.73-2.51,4.43,4.43,0,0,1,.07-.6,3.45,3.45,0,0,0,0-.57l0-.2c.17-.66.37-1.29.58-1.92l.69-2c.77-1.77,1.6-3.49,2.47-5.15s1.77-3.32,2.69-5l4.37-7.82,1.94-3.17c.62-1,1.22-2,1.79-3.11l.73-1.13a12.14,12.14,0,0,1,1-2.11c.42-.68.89-1.37,1.4-2.09.14-.21.3-.47.46-.75a3.64,3.64,0,0,0,.3-.65,2.4,2.4,0,0,0,.21-.65,2.11,2.11,0,0,1,.13-1.29c.13-.29.29-.61.46-1l.1-.14a3.32,3.32,0,0,1,1.14-.78l.16-.05a8.84,8.84,0,0,1,3.83,0,3.12,3.12,0,0,1,1.39.79,1.63,1.63,0,0,1,.45,1.6l-.08.18-.75,1.34c-.55.71-1,1.35-1.39,2s-.74,1.16-1.11,1.69l.17-.07a1.62,1.62,0,0,0,.42-.22,29.72,29.72,0,0,1,5.83-2.79l1.87-.66a13.22,13.22,0,0,1,3.41-.57,26.87,26.87,0,0,1,3.42.14,7.51,7.51,0,0,1,4,1.82l.39.29a3.73,3.73,0,0,1,.54.53,3.09,3.09,0,0,1,.81,2.83,5.25,5.25,0,0,1-1,2.29c-.14.21-.29.44-.43.61a1.51,1.51,0,0,0-.2.34l-.12.2c-.43.52-.88,1-1.35,1.52l-1.3,1.37a9,9,0,0,0-1.57,1.46,15.66,15.66,0,0,1-1.67,1.37,16.33,16.33,0,0,1-1.7,1l-.18.08a1.82,1.82,0,0,0-.59.34,16.53,16.53,0,0,1-2.26,1.27c-.76.36-1.51.7-2.27,1l-2.68.88a19.25,19.25,0,0,1-5.36.8H223a5.75,5.75,0,0,1-3-1,.81.81,0,0,0-.23-.15,1.2,1.2,0,0,1-.64-.41,2,2,0,0,1-.74-1.72v-.06c-.73,1-1.41,2.06-2,3.12l-2.25,3.73-1.22,2.42c-.24.5-.49,1-.73,1.55a14.26,14.26,0,0,1-.93,1.67,18.1,18.1,0,0,0-1.66,3.72c-.37.74-.65,1.36-.89,2a14.18,14.18,0,0,1-.92,1.92,1.39,1.39,0,0,0-.22.46,2.55,2.55,0,0,1-.43,1c-.27.6-.58,1.27-.87,1.9a15.42,15.42,0,0,1-1.12,2l-.83.9-.17.07a4.29,4.29,0,0,1-.8.19Zm-.05-1.57h.18l.29,0,.48-.52a15.66,15.66,0,0,0,.92-1.7c.29-.64.61-1.31.94-2a1.59,1.59,0,0,0,.25-.52,2.82,2.82,0,0,1,.42-1,11.79,11.79,0,0,0,.8-1.67c.26-.65.57-1.32.91-2a19,19,0,0,1,1.76-3.94,10.8,10.8,0,0,0,.84-1.51c.25-.54.51-1.07.76-1.59l1.25-2.48,2.27-3.77a43,43,0,0,1,2.54-3.83c.54-.74,2-2.63,3.27-4.1a27.6,27.6,0,0,1,5.28-4.19,48.84,48.84,0,0,1,6.46-3.53,16.06,16.06,0,0,1,5.23-1.4,6.28,6.28,0,0,1,1.93.22c.63.21,1.75.59,1.88,1.57,1.06,2.49-2.15,5.86-5.56,8.21-4.92,3.39-11.46,5.64-14.77,3h0l-.19.1h0s-.09.08-.3.33a5.36,5.36,0,0,0-.82,1.45c0,.2.06.32.1.34l.23.19a2.17,2.17,0,0,1,.6.34,4.19,4.19,0,0,0,2.14.7h.75a17.57,17.57,0,0,0,4.89-.73l2.6-.85c.68-.29,1.41-.62,2.15-1a14.28,14.28,0,0,0,2-1.13,3.31,3.31,0,0,1,1-.56,14.07,14.07,0,0,0,1.47-.91,15.59,15.59,0,0,0,1.42-1.13,8.14,8.14,0,0,1,1.67-1.56c.32-.36.76-.83,1.22-1.31s.81-.88,1.2-1.35a3.4,3.4,0,0,1,.37-.59,6.69,6.69,0,0,0,.39-.57,3.83,3.83,0,0,0,.77-1.68,1.55,1.55,0,0,0-.44-1.45h0a2.5,2.5,0,0,0-.32-.33l-.44-.33a5.86,5.86,0,0,0-3.24-1.47,23.23,23.23,0,0,0-3.18-.14,11.76,11.76,0,0,0-3,.5l-1.83.65a28.26,28.26,0,0,0-5.46,2.6,3.12,3.12,0,0,1-.75.4,6.51,6.51,0,0,1-.71.23,1,1,0,0,1-.71.14l-.34-.07-.18-.22a1.13,1.13,0,0,1-.5-.86,3,3,0,0,1,.19-1.18l.09-.14c.4-.56.81-1.17,1.21-1.82s.91-1.36,1.42-2l.59-1.06a1.31,1.31,0,0,0-.7-.47,7.44,7.44,0,0,0-3,0,2.23,2.23,0,0,0-.48.29c-.13.26-.26.51-.36.75a.58.58,0,0,0,0,.39l0,.2a3.25,3.25,0,0,1-.31,1.27,4.27,4.27,0,0,1-.42.89c-.17.3-.34.58-.51.85-.51.71-1,1.38-1.37,2a9.77,9.77,0,0,0-.92,1.9l-.09.17-.74,1.14c-.56,1-1.17,2.1-1.8,3.13l-1.93,3.14-4.35,7.79c-.91,1.65-1.8,3.29-2.67,4.94s-1.67,3.31-2.4,5l-.67,1.89c-.19.56-.36,1.13-.52,1.71a4.54,4.54,0,0,1-.07.75,3,3,0,0,0-.05.48l-.06.29a12.75,12.75,0,0,0-.7,2.43l0,.15A3.37,3.37,0,0,0,202.92,533.9Zm17.23-24.39h0Zm1.35-4.3.36.34c2.32,2.55,8.57.49,13.27-2.74,3.47-2.39,5.61-5.13,5-6.37l-.08-.16v-.19c0,.06-.19-.07-.81-.28a4.89,4.89,0,0,0-1.37-.15,14.8,14.8,0,0,0-4.65,1.26,46.4,46.4,0,0,0-6.26,3.43,25.77,25.77,0,0,0-5,3.94c-.27.3-.55.63-.82.95Z" transform="translate(-71.77 -450.47)"/><path class="cls-2" d="M374.35,539.18q-2.73,2-5.14,3.88a25.38,25.38,0,0,1-4.95,3.07,15,15,0,0,1-5.5,1.37,16,16,0,0,1-6.81-1.32,17.63,17.63,0,0,1-3.9-1.85,5.53,5.53,0,0,1-2.29-3.07,3.52,3.52,0,0,1-.86-2.08A70.93,70.93,0,0,1,344,527a51.35,51.35,0,0,1,1.79-12.63c.66-2.65,1.36-5.26,2.11-7.81s1.56-5.09,2.47-7.62c.5-1.45,1.05-2.9,1.67-4.35s1.14-2.8,1.55-4.07a7.34,7.34,0,0,1,.74-1.7c.41-.76.83-1.58,1.24-2.46s.78-1.77,1.11-2.65a7,7,0,0,0,.5-2.46c-.25.25-.62.65-1.12,1.18s-1,1.09-1.54,1.66-1,1.09-1.43,1.56a4.94,4.94,0,0,0-.74,1q-5.56,5.11-10.89,10.17t-10.52,10.08l-2,1.89a11.29,11.29,0,0,1-2.1,1.61,7.76,7.76,0,0,1-3.09,1.09,9.07,9.07,0,0,1-6.32-1.42,5.19,5.19,0,0,1-2-2.32,1.92,1.92,0,0,1-.44-.94,7.57,7.57,0,0,1-.06-.95,21,21,0,0,1,.25-3.12c.16-1.14.33-2.24.49-3.31,0-.57,0-1.22.06-1.94s.11-1.47.19-2.23.16-1.48.25-2.17a8.89,8.89,0,0,1,.37-1.8c.08-.25,0-.28-.25-.09a7.81,7.81,0,0,0-.93.85l-1.11,1.13a8.64,8.64,0,0,1-.81.76,42.27,42.27,0,0,1-3.4,4.54c-1.2,1.39-2.37,2.84-3.53,4.35q-3.58,4.17-6.86,7.29a56.57,56.57,0,0,0-6.38,7.28c-.41.51-.91,1.09-1.48,1.75s-1.18,1.33-1.8,2a18.29,18.29,0,0,1-2,1.85,7.74,7.74,0,0,1-2,1.23l-1.85.61a3.41,3.41,0,0,1-1.3.19,2.62,2.62,0,0,1-1.18-.43c-.41-.25-.29-2.23-.12-2.36.91-1,1.74-2,2.64-2.94a29.69,29.69,0,0,0,2.8-3q4.22-5.11,8.17-10.27t8.17-10.26q5.19-6.72,10.39-13.06c3.47-4.23,6.71-8.44,10.17-12.92.69-1.28,3.83-1.85,4.62-.8.67.88-3,12.36-3.4,13.62q-.87,2.75-2,5.92c-.75,2.11-1.41,4.26-2,6.43a40.52,40.52,0,0,0-1.18,6.44,16.41,16.41,0,0,0,.43,5.91,4.63,4.63,0,0,0,2.6-1,38.26,38.26,0,0,0,3.59-2.7c1.24-1,11.61-10.25,13.3-11.92s22.95-20.7,23.84-21.46c6.18-5.25-5.71,25.62-7,29.14-1.07,2.94-2.23,6-3.26,9.08a78.15,78.15,0,0,0-2.63,9.78c-.25,1.14-.5,2.38-.75,3.74s-.45,2.76-.61,4.21-.29,2.87-.38,4.26a19.63,19.63,0,0,0,.13,3.88,12.37,12.37,0,0,0,.62,4c.41,1.23.86,2.47,1.36,3.74a7.76,7.76,0,0,0,2.41,1.84,5.57,5.57,0,0,0,3.16.52,24.38,24.38,0,0,0,6-2.46c2-1.13,4-2.21,5.88-3.22q2.59-1.61,4.95-3.26c1.56-1.11,3.17-2.22,4.82-3.36l5.57-4c.41.5.27,1.23-.43,2.17a23.87,23.87,0,0,1-2.79,3.08q-1.72,1.65-3.59,3.26C376,537.69,375,538.55,374.35,539.18Z" transform="translate(-71.77 -450.47)"/><path class="cls-2" d="M358.1,548.31A24,24,0,0,1,347.63,545a6.22,6.22,0,0,1-2.57-3.37,4.17,4.17,0,0,1-.95-2.44,71.2,71.2,0,0,1-.93-12.17A52.36,52.36,0,0,1,345,514.19c.65-2.62,1.37-5.25,2.11-7.83s1.59-5.16,2.49-7.66c.5-1.45,1.07-2.94,1.69-4.4s1.12-2.77,1.52-4a8.06,8.06,0,0,1,.8-1.84c.41-.74.81-1.55,1.22-2.41s.64-1.43.91-2.13l-.68.73c-.53.56-1,1.07-1.4,1.53a4.87,4.87,0,0,0-.62.79l-.19.27c-3.68,3.38-7.34,6.8-10.88,10.16s-7.05,6.74-10.51,10.08l-2,1.89a12.49,12.49,0,0,1-2.24,1.72,8.62,8.62,0,0,1-3.39,1.19,9.8,9.8,0,0,1-3.63-.16,10.13,10.13,0,0,1-3.22-1.38,6.1,6.1,0,0,1-2.22-2.57,2.7,2.7,0,0,1-.54-1.25,9.24,9.24,0,0,1-.06-1.05,22.28,22.28,0,0,1,.25-3.24c.17-1.13.33-2.24.5-3.32,0-.46,0-1.12.05-1.86s.11-1.49.19-2.26.15-1.37.23-2l-.56.57a9.05,9.05,0,0,1-.78.74,42.94,42.94,0,0,1-3.39,4.52c-1.16,1.34-2.34,2.79-3.5,4.32-2.42,2.81-4.75,5.28-7,7.38a55.77,55.77,0,0,0-6.29,7.18c-.44.54-.94,1.13-1.52,1.8s-1.19,1.34-1.81,2a22.07,22.07,0,0,1-2.06,1.92,8.53,8.53,0,0,1-2.26,1.35l-1.9.63a4.13,4.13,0,0,1-1.6.22,3.45,3.45,0,0,1-1.52-.54c-.4-.24-.6-.72-.64-1.54s0-1.76.45-2.11.74-.83,1.14-1.29.93-1.09,1.42-1.59l.51-.5a24.09,24.09,0,0,0,2.23-2.43c2.83-3.44,5.57-6.89,8.17-10.28s5.39-6.89,8.18-10.28c3.47-4.49,7-8.89,10.4-13.06,3.1-3.78,6-7.55,9.09-11.53l1.06-1.37c.5-1,2-1.54,3.29-1.64a2.85,2.85,0,0,1,2.58.85c.24.31,1,1.28-3.29,14.34q-.87,2.75-2,5.93c-.74,2.09-1.4,4.23-2,6.37a40.62,40.62,0,0,0-1.15,6.31,16,16,0,0,0,.25,5,6.94,6.94,0,0,0,1.57-.83,36.22,36.22,0,0,0,3.52-2.64c1.37-1.15,11.63-10.27,13.25-11.88s22.83-20.6,23.89-21.5,1.74-1,2.36-.56c1.26.89,1.82,3.95-7.61,29.21l-1.36,3.69c-.81,2.19-1.64,4.46-2.4,6.72a76.56,76.56,0,0,0-2.6,9.69c-.25,1.15-.5,2.38-.75,3.73s-.44,2.73-.6,4.16-.29,2.84-.37,4.21a19.64,19.64,0,0,0,.11,3.73,12.4,12.4,0,0,0,.59,3.88c.39,1.18.83,2.36,1.3,3.57a7.1,7.1,0,0,0,2.08,1.56,4.75,4.75,0,0,0,2.72.44,24.66,24.66,0,0,0,5.7-2.36c2-1.14,4-2.22,5.9-3.23,1.63-1,3.28-2.1,4.87-3.21s3.17-2.23,4.83-3.37l6.15-4.39.47.57c.46.56.76,1.56-.41,3.14a26.16,26.16,0,0,1-2.87,3.17c-1.17,1.11-2.38,2.22-3.62,3.29s-2.17,1.91-2.82,2.53l-.08.07c-1.82,1.33-3.54,2.63-5.11,3.86a26.24,26.24,0,0,1-5.11,3.17,16.08,16.08,0,0,1-5.78,1.45Zm-.17-69v1.93a7.91,7.91,0,0,1-.54,2.73c-.33.9-.72,1.81-1.14,2.71s-.84,1.74-1.26,2.51a6.82,6.82,0,0,0-.67,1.49c-.43,1.35-1,2.74-1.59,4.21s-1.16,2.87-1.64,4.29c-.9,2.49-1.73,5-2.47,7.59s-1.45,5.17-2.1,7.78A50.86,50.86,0,0,0,344.75,527a70.46,70.46,0,0,0,.92,12,2.89,2.89,0,0,0,.72,1.73l.12.25a4.74,4.74,0,0,0,2,2.65,17.36,17.36,0,0,0,3.72,1.76,15.44,15.44,0,0,0,6.51,1.28,14.53,14.53,0,0,0,5.22-1.3,25.13,25.13,0,0,0,4.8-3c1.57-1.23,3.29-2.54,5.12-3.87.66-.63,1.6-1.48,2.83-2.54s2.42-2.15,3.56-3.24a24.34,24.34,0,0,0,2.68-2.95l-4,2.88q-2.49,1.71-4.83,3.36c-1.61,1.13-3.29,2.24-5,3.29-1.94,1-3.89,2.1-5.91,3.23a25.38,25.38,0,0,1-6.19,2.54,6.42,6.42,0,0,1-3.7-.58,8.51,8.51,0,0,1-2.65-2l-.14-.23c-.5-1.27-1-2.54-1.38-3.78a13.21,13.21,0,0,1-.66-4.26,20.61,20.61,0,0,1-.12-3.93c.08-1.4.21-2.84.38-4.3s.37-2.89.62-4.26.5-2.62.75-3.77a78.53,78.53,0,0,1,2.65-9.86c.77-2.29,1.61-4.57,2.42-6.77l1.36-3.7c7.9-21.17,8.47-26.11,8.19-27.24a3.36,3.36,0,0,0-.46.34c-1,.84-22.22,19.86-23.79,21.42-1.75,1.73-12.24,11-13.35,12a39.53,39.53,0,0,1-3.67,2.76,5.08,5.08,0,0,1-3.11,1.16l-.53-.06-.14-.52a17.28,17.28,0,0,1-.46-6.19,40.4,40.4,0,0,1,1.2-6.56c.58-2.18,1.25-4.36,2-6.49s1.39-4.07,2-5.89c1.53-4.69,3.52-11.64,3.45-13a2,2,0,0,0-1.13-.16,2.85,2.85,0,0,0-2.09.92l-1.14,1.48c-3.09,4-6,7.77-9.12,11.57-3.41,4.16-6.91,8.55-10.38,13-2.8,3.4-5.54,6.84-8.17,10.26s-5.36,6.86-8.18,10.29a23.89,23.89,0,0,1-2.36,2.58l-.49.49c-.46.47-.91,1-1.35,1.5s-.77.89-1.17,1.32a4.37,4.37,0,0,0,0,1.35,1.89,1.89,0,0,0,.68.23,2.67,2.67,0,0,0,1-.16c.49-.15,1.11-.35,1.84-.61a6.75,6.75,0,0,0,1.8-1.09,18.85,18.85,0,0,0,1.9-1.77c.61-.66,1.21-1.32,1.78-2s1.06-1.23,1.47-1.73a56.82,56.82,0,0,1,6.44-7.36c2.16-2.06,4.45-4.49,6.81-7.23,1.16-1.52,2.35-3,3.53-4.35a43.17,43.17,0,0,0,3.34-4.46l.18-.2a7.15,7.15,0,0,0,.72-.68l1.11-1.13a10.26,10.26,0,0,1,1-.93.93.93,0,0,1,1.18-.13.88.88,0,0,1,.28,1.09,8.43,8.43,0,0,0-.33,1.65c-.09.69-.17,1.41-.25,2.17s-.14,1.47-.18,2.18-.06,1.34-.06,1.9c-.18,1.19-.34,2.29-.51,3.42a20.7,20.7,0,0,0-.24,3,5.93,5.93,0,0,0,.06.84,1.14,1.14,0,0,0,.27.57l.1.17a4.5,4.5,0,0,0,1.7,2,8.41,8.41,0,0,0,2.71,1.17,8.24,8.24,0,0,0,3.06.12,7,7,0,0,0,2.78-1,11.28,11.28,0,0,0,2-1.51l2-1.9q5.19-5,10.52-10.07c3.51-3.35,7.15-6.74,10.8-10.09a6.13,6.13,0,0,1,.79-1c.41-.48.89-1,1.44-1.58l1.54-1.65,1.13-1.2Z" transform="translate(-71.77 -450.47)"/><path class="cls-2" d="M384.25,504a2.25,2.25,0,0,1-.13.66c0,.51.37.76,1.12.76,0,0,2.78-.19,3.9-.19a14.34,14.34,0,0,0,2.65-.19h1.74a.53.53,0,0,1,.25.38c.32.38.28.66-.13.85-.08.19-.18.3-.31.33a1.19,1.19,0,0,0-.43.24,1.53,1.53,0,0,1-.74.38c-.91.18-2,.34-3.16.47s-5.63,1.13-6.87,1.13c-.16.07-4.43,4.77-6.12,6s-3.24,2.2-4.64,3a5.86,5.86,0,0,1-2.48.76H368a2.41,2.41,0,0,1-.87-.19,5.31,5.31,0,0,1-2.23-1c-5.18-3.83,9-26.53,18.32-17.22.21.22.37.54.61.86a5.05,5.05,0,0,1,.38.89,2.1,2.1,0,0,1,0,1Zm-15.47,9.68c1.88.73,10-5.33,10.69-8.48C381.19,496.8,364.39,507.94,368.78,513.66Zm12.25-12" transform="translate(-71.77 -450.47)"/><path class="cls-2" d="M368,519.33a3.2,3.2,0,0,1-1.15-.24,5.74,5.74,0,0,1-2.41-1c-.86-.63-1.77-2-1.3-4.85.92-5.65,6.58-13.68,12.49-15.59a7.64,7.64,0,0,1,8.14,2,3.41,3.41,0,0,1,.44.58c.08.11.15.23.24.34a5.83,5.83,0,0,1,.51,1.17,2.74,2.74,0,0,1,0,1.28v1a2.4,2.4,0,0,1-.08.62h.29c.06,0,2.77-.18,3.9-.18a13.69,13.69,0,0,0,2.51-.18h2.15l.21.16a1.43,1.43,0,0,1,.5.66,1.27,1.27,0,0,1,.24,1,1.12,1.12,0,0,1-.52.74,1.19,1.19,0,0,1-.69.52h0a.89.89,0,0,0-.16.1,2.06,2.06,0,0,1-1.11.53c-.92.19-2,.35-3.18.48-.44.05-1.43.24-2.48.44-1.59.3-3.22.62-4.15.68l-.87.91a54.22,54.22,0,0,1-5.12,4.92c-1.71,1.22-3.29,2.25-4.7,3.07a6.37,6.37,0,0,1-2.77.86Zm10.23-20.57a6.72,6.72,0,0,0-2.12.35c-5.31,1.71-10.59,9.24-11.43,14.34-.15.94-.27,2.63.69,3.33a4.52,4.52,0,0,0,1.91.81,2.32,2.32,0,0,0,.72.18h.86a5.06,5.06,0,0,0,2.05-.63c1.4-.83,2.95-1.83,4.62-3a57,57,0,0,0,4.89-4.74c1.16-1.21,1.19-1.24,1.4-1.32l.28-.05a36.65,36.65,0,0,0,4.17-.67c1.13-.22,2.11-.41,2.62-.46,1.16-.12,2.2-.28,3.08-.46l.13,0s.09-.06.29-.22a2.63,2.63,0,0,1,.52-.3l0-.09H391.8a13.41,13.41,0,0,1-2.66.19c-1.08,0-3.82.19-3.85.19h0c-1.81,0-2-1.18-2-1.54l0-.24a1.49,1.49,0,0,0,.08-.42l0-1.2a1.3,1.3,0,0,0,0-.62,3.85,3.85,0,0,0-.31-.75,3.26,3.26,0,0,1-.24-.33,1.77,1.77,0,0,0-.24-.33A6.12,6.12,0,0,0,378.27,498.76ZM393,505.4a.59.59,0,0,0,0,.14Zm-23.84,9.1a1.64,1.64,0,0,1-.65-.11l-.21-.08-.13-.17c-1.52-2-1.08-4.72,1.18-7.54,2.63-3.26,7.33-6.08,9.7-5,.81.38,1.68,1.33,1.2,3.7-.55,2.68-5.21,6.54-8.23,8.18A6.45,6.45,0,0,1,369.15,514.5ZM377.79,503c-1.67,0-5.05,1.93-7.23,4.64-1,1.23-2.44,3.53-1.33,5.34a6.63,6.63,0,0,0,2.53-1.07c3-1.76,6.58-5.06,6.94-6.83.13-.62.25-1.7-.33-2A1.44,1.44,0,0,0,377.79,503Z" transform="translate(-71.77 -450.47)"/><path class="cls-2" d="M385.24,516.47c.08-.82,4.2-6.69,4.45-7a2.91,2.91,0,0,1,.25-.67,6.84,6.84,0,0,1,.93-2.22,17.49,17.49,0,0,0,1.17-2.22c1-2,3.88-2.13,4.52.3l.19.45c0,.19.56,1.84.8,1.71a5,5,0,0,1,1-.38c0-.18,3.83-2.71,4.73-2.65a4.13,4.13,0,0,1,3,1.23.77.77,0,0,0,.13.47.89.89,0,0,0,1,.19c.16-.06,1-.5,1-.5s9.07-6,9.73-6.41a5.23,5.23,0,0,1,3.1-.37,1.94,1.94,0,0,1,1.48.85v.47a13.62,13.62,0,0,1-.55,1.7,7.78,7.78,0,0,1-.93,1.61c-.74,1.2-1.45,2.4-2.11,3.6s-6.76,11.55-7.17,12.26a1.28,1.28,0,0,1-.07.29,1.21,1.21,0,0,0-.06.38c0,.26.08.38.25.38s.21.13.37,0a2.6,2.6,0,0,0,.87-.28c.9-.51,1.79-1,2.66-1.52s8.6-5.61,9.34-6,1.44-.88,2.1-1.33c.5-.19.91-.49,1.37-.66,1.18-.45.73,2.51-1,3.31a10,10,0,0,0-2.23,1.71,8.69,8.69,0,0,0-1.8,1.13,16.83,16.83,0,0,1-1.54,1.14c-1,.75-2,1.48-2.91,2.18s-5.43,4.25-6.74,4.94c-.47.48-4.26.77-4.71.09-1.48-1-1.94-2.23-1.36-3.68a7.8,7.8,0,0,1,1.11-2c.42-.65,5.16-8,5.33-8.24s1.15-2.27,1.48-2.93.7-1.34,1.11-2a1.89,1.89,0,0,0,.5-.76,1.28,1.28,0,0,0,.12-.66c0-.12-.1-.22-.31-.28a.86.86,0,0,0-.55,0,.8.8,0,0,0-.5.19l-1.05.66c-.29.19-13.95,12.13-14.66,12.41-2.12.82-1.05-7.27-1-7.32s-1.69-.51-2-.37a5.14,5.14,0,0,0-1.6,1.18c-.28.38-6.75,8-7.44,7.67C386.64,518.21,385.24,517.05,385.24,516.47Z" transform="translate(-71.77 -450.47)"/><path class="cls-2" d="M409.71,525.78c-.33,0-.61,0-.82,0a2.36,2.36,0,0,1-1.54-.56c-2.18-1.53-2.05-3.32-1.56-4.56a8.83,8.83,0,0,1,1.23-2.24l1.74-2.69c1.35-2.09,3.4-5.24,3.52-5.45s.93-1.82,1.33-2.62l.13-.27c.34-.67.72-1.37,1.14-2.08l.12-.15a1.37,1.37,0,0,0,.25-.33l-1.06.69c-.13.1-1.51,1.29-3.1,2.67-9.49,8.19-11.28,9.65-11.71,9.81a1.38,1.38,0,0,1-1.68-.46c-.93-1.2-.76-5.24-.48-7.11a1.62,1.62,0,0,0-2.06.8c-.06.08-6.84,8.6-8.38,7.92-.46-.2-2.33-1.53-2.33-2.65v-.08c.1-1.08,3.82-6.3,4.5-7.26.05-.14.13-.34.26-.64a7.11,7.11,0,0,1,1-2.32,17.32,17.32,0,0,0,1.12-2.12,3.4,3.4,0,0,1,3.36-2,3,3,0,0,1,2.64,2.39l.21.65a6.87,6.87,0,0,0,.28.75l.42-.13a14.1,14.1,0,0,1,5.09-2.72h0a5,5,0,0,1,3.49,1.47l.21.23V505l.09,0c.14-.05.91-.45.91-.45.86-.57,9-6,9.7-6.39a6.11,6.11,0,0,1,3.62-.47,2.73,2.73,0,0,1,2,1.24l.1.18,0,.88a13.58,13.58,0,0,1-.59,1.8,8.6,8.6,0,0,1-1,1.77c-.71,1.15-1.41,2.35-2.05,3.52-.49.89-3.85,6.59-5.85,10l-1.2,2,.22-.1c.85-.47,1.73-1,2.59-1.47.46-.27,3-2,5.32-3.45,1.92-1.25,3.68-2.41,4-2.61.73-.43,1.42-.86,2.07-1.3l.15-.08a4.43,4.43,0,0,0,.62-.3,7.36,7.36,0,0,1,.75-.36,1.19,1.19,0,0,1,1.59.64c.49,1.17-.38,3.37-2,4.12a6.46,6.46,0,0,0-1.61,1.19l-.61.51a7.84,7.84,0,0,0-1.64,1,17.39,17.39,0,0,1-1.62,1.19c-.94.72-1.91,1.45-2.86,2.16l-1.14.86a67.47,67.47,0,0,1-5.64,4.1A7,7,0,0,1,409.71,525.78Zm6.47-19.62c-.38.65-.73,1.28-1,1.9l-.13.27c-.42.83-1.23,2.45-1.38,2.71s-1.54,2.4-3.55,5.51l-1.78,2.76a7.34,7.34,0,0,0-1.05,1.89c-.3.75-.44,1.73,1.07,2.76l.22.21a9.1,9.1,0,0,0,3.56-.27c1.07-.59,4-2.85,5.6-4.07l1.16-.89c.95-.7,1.91-1.42,2.9-2.17a18,18,0,0,0,1.53-1.12,9,9,0,0,1,1.85-1.19l.33-.3a8.33,8.33,0,0,1,2-1.46,2.4,2.4,0,0,0,1.16-1.66l-.12.07a8,8,0,0,1-.72.35c-.65.44-1.34.87-2.07,1.3-.33.2-2.07,1.34-4,2.57-2.4,1.58-4.89,3.21-5.39,3.49-.87.51-1.76,1-2.67,1.52a4.71,4.71,0,0,1-1,.36,1.11,1.11,0,0,1-.65.11l-.34-.06-.1-.13a1.09,1.09,0,0,1-.58-1.06,2,2,0,0,1,.1-.64v-.21l.13-.22,1.33-2.27c1.87-3.18,5.36-9.1,5.84-10,.65-1.19,1.37-2.41,2.12-3.63a7.6,7.6,0,0,0,.87-1.5,13.16,13.16,0,0,0,.5-1.5v-.12a1.69,1.69,0,0,0-.84-.33,4.36,4.36,0,0,0-2.64.32c-.4.23-6,3.92-9.62,6.34-.07.05-1,.52-1.19.59a1.69,1.69,0,0,1-1.82-.38l-.1-.12a1.43,1.43,0,0,1-.22-.54,3.47,3.47,0,0,0-2.27-.81,18.32,18.32,0,0,0-3.92,2.23l0,.24-.51.15c-.31.1-.69.21-.8.27l-.42.32-.51-.3a4.09,4.09,0,0,1-1.07-2.12l-.17-.4c-.22-.83-.68-1.27-1.31-1.33a1.83,1.83,0,0,0-1.78,1.07,17,17,0,0,1-1.21,2.3,6.54,6.54,0,0,0-.83,2c-.15.39-.22.55-.24.64v.27l-.15.07a75.65,75.65,0,0,0-4.26,6.52,5.15,5.15,0,0,0,1.11,1.06c1.37-1,6.23-6.6,6.74-7.26a5.7,5.7,0,0,1,1.88-1.42,3.86,3.86,0,0,1,2.9.51l.4.47-.25.38c-.25,1.56-.45,5.41,0,6.25,1-.72,7.86-6.61,11.19-9.49,2.91-2.51,3.16-2.72,3.27-2.8l1.07-.67a1.54,1.54,0,0,1,.76-.3,1.64,1.64,0,0,1,.93,0,1.08,1.08,0,0,1,.87,1,2.13,2.13,0,0,1-.19,1A2.78,2.78,0,0,1,416.18,506.16Z" transform="translate(-71.77 -450.47)"/><path class="cls-2" d="M425.34,517.23a12.61,12.61,0,0,1,.83-2.92c.14-.45-.52-.73-.26-1.25s1.09-1.09.72-1.58,6.43-8.26,7.63-8.85a14,14,0,0,1,4.88-2.15,7,7,0,0,1,3.19.56,5.15,5.15,0,0,1,1.76,1.35c2.78,2.6-4.33,8.53-7.13,10-.74.38-4.83,2.33-4.83,2.33-1.07,1.09-.58,2.61,1.13,2.39,1.41-.18,11.47-3.43,11.75-4a8,8,0,0,1,3.21-2.65,6.37,6.37,0,0,1,1.29-.26,1.72,1.72,0,0,1,1.41.14h0a1.47,1.47,0,0,1,.76.85l.09.37-.14.25a22.53,22.53,0,0,1-2.17,2.79l-.17.09a23.51,23.51,0,0,0-2.56,1.28c-.84.49-3.06-.59-3.78-.09C441.76,517.76,424.19,521.54,425.34,517.23Zm13.38-.61-2.28.68a14.17,14.17,0,0,1-3.1.69,5.67,5.67,0,0,1-1.87-.1l-.22-.08a2.27,2.27,0,0,1-.77-.54,1.57,1.57,0,0,0-.25-.21l-.25-.21-1.66-.3c-.4-1.08-2.39-3.37,1.73-3,.06-.36,1.24-5,1.59-4.88-.66,4,8.64,1.35,10.73-2.75,1.64-5.79-9.15-2.5-11.51,4.15-.16.19-2.26,1.35-2.35,1.53l-.29.62c-.25.59-.51,1.14-.76,1.65a10.41,10.41,0,0,0-.57,1.41c-.33.7-.16.95-.1,1a2.3,2.3,0,0,0,.69.7c.36.24.73.51,1.12.81a2.08,2.08,0,0,1,.47.27,8.11,8.11,0,0,1,.88.24l.5.19a6.5,6.5,0,0,0,1.93.23,6.85,6.85,0,0,0,1.63,0,15.15,15.15,0,0,0,1.64-.27l.18-.22a6.67,6.67,0,0,0,1.67-.32c.6-.15,1.15-.77,1.71-1,.83-.19,1.63,0,2.26-.3s1.38-.37,2-.69,1.47-1,2.35-1.48a23.92,23.92,0,0,1,2.68-1.34,4.28,4.28,0,0,0,1.17-1.21h0a4,4,0,0,0-.9.16c-.92.45-2,.94-3,1.42L442.65,515c-1,.46-2,.87-3,1.25Zm11.38-4.76.06.07.35-.81Z" transform="translate(-71.77 -450.47)"/><path class="cls-2" d="M429.24,520a8.91,8.91,0,0,1-3.35-.49,2,2,0,0,1-1.31-2.47c0-.14.07-.32.11-.52a11,11,0,0,1,.67-2.31,1.47,1.47,0,0,1-.16-1.48,3.32,3.32,0,0,1,.46-.65l.22-.28-.1-.12.08-.49c.35-1.45,6.81-8.64,8.06-9.24a14,14,0,0,1,5.15-2.23,7.89,7.89,0,0,1,3.58.62,6.09,6.09,0,0,1,1.73,1.24,2.37,2.37,0,0,0,.23.24,2.78,2.78,0,0,1,.87,2.51c-.48,3.43-6,7.65-8.16,8.76-.66.34-4,1.93-4.72,2.27a.78.78,0,0,0-.22.76c.09.19.4.27.78.21a88.54,88.54,0,0,0,11.24-3.7,9.24,9.24,0,0,1,3.48-2.84,8.82,8.82,0,0,1,1.48-.33,2.53,2.53,0,0,1,1.93.23,2.15,2.15,0,0,1,1.15,1.35l.17.68-.5.8a20.38,20.38,0,0,1-2.09,2.67l-.35.23a22.25,22.25,0,0,0-2.54,1.26,3.73,3.73,0,0,1-2.5.05l-.64-.12,0,0a5.58,5.58,0,0,1-1.22.44h0C440.23,518.51,433.66,520,429.24,520Zm-3-3.14c-.05.22-.09.42-.13.59h0c-.06.22-.07.38.33.59a4.88,4.88,0,0,0,1.7.4h0l-1.09-.78A3,3,0,0,1,426.23,516.84Zm2.64-1,1.44.27.41.32.16.13a2.39,2.39,0,0,1,.69-2.42l.22-.16s4.07-1.93,4.81-2.32a19.23,19.23,0,0,0,3.13-2.18c-2.47,1.52-5.53,2.27-7.28,1.7a2.49,2.49,0,0,1-.85-.47c-.36,1.18-.73,2.62-.78,2.91l-.13.7-.7-.05c-1.45-.11-1.73.15-1.73.15a3.67,3.67,0,0,0,.45,1.12Zm17.11-.52a.9.9,0,0,0,.36,0A22.22,22.22,0,0,1,449,514c.2-.21.39-.43.57-.65a6.23,6.23,0,0,1-.55.44l-.15.09a21.41,21.41,0,0,0-2.58,1.29Zm-19.31-2,.09.16c.11-.22.22-.45.32-.68l-.21.27Zm2.48-1.28-.21.45-.09.22a5.62,5.62,0,0,1,.58,0c.06-.27.15-.61.25-1C429.46,511.83,429.26,512,429.15,512Zm20.54-1-.12,0a6,6,0,0,0-1.14.24,8.41,8.41,0,0,0-1.27.78l1.3-.62.15-.06a4.93,4.93,0,0,1,1-.18Zm-22.23.41a1.08,1.08,0,0,1,0,.47c.08-.19.19-.4.31-.65s.34-.43,1.56-1.17l.83-.5c2-5.19,8.41-8.2,11.33-7.27,1.45.46,2.06,1.76,1.68,3.49a4.47,4.47,0,0,0,.71-1.67,1.18,1.18,0,0,0-.37-1.13c-.15-.14-.25-.25-.34-.35a4.72,4.72,0,0,0-1.27-.9,6.41,6.41,0,0,0-2.75-.45,13.35,13.35,0,0,0-4.45,2C433.6,503.86,428.23,509.94,427.46,511.39Zm23.2-.23h.06l-.17-.11a1.23,1.23,0,0,0-.38-.13Zm-18.22-2.6,0,.19c-.1.61.13.81.53.94,2,.66,7.28-1.34,8.74-4.18.38-1.42-.35-1.65-.63-1.74C439.22,503.18,434.68,505.05,432.44,508.56Z" transform="translate(-71.77 -450.47)"/><path class="cls-2" d="M474.77,509.61a12.35,12.35,0,0,1,1.17-.43c.42-.12.79-.25,1.12-.38a11.39,11.39,0,0,1,1.24-.37c.32-.07.41,0,.24.28a.49.49,0,0,1,0,.47,3.56,3.56,0,0,0-.24.48l-2.6,1.51-.81.42-.8.43L468.36,515c-2.41,1.14-13.81,8.09-13.58,3.5l.5-1.61,3.46-7.48c.55-.82-1.84-3.12-5.21.5-.08.1-6.94,8.8-7,8.13-.74.25-2.45.18-2.78-.45-.33-.38,1.81-4.87,2-5.44.33-.5,2.27-3.78,2.6-4.35s4.29-8.29,4.45-8.61.54-.47,1.12-.47h1.23a8,8,0,0,1,.81.05,1,1,0,0,1,.68.33c.74.44,1,.94.87,1.51a1.79,1.79,0,0,1-.25.9,1.75,1.75,0,0,0-.25.9.55.55,0,0,0,.5.19c.24,0,.75.54.92.48a17.82,17.82,0,0,0,1.95-1.3c.64-.6,1.41-1.42,2.08-1.93a6.49,6.49,0,0,1,3.09-.66,2.86,2.86,0,0,1,2,.57,1.78,1.78,0,0,0,.25.33.52.52,0,0,1,.12.33c.25.38.33.63.25.76a8.15,8.15,0,0,1-.5,1.23l-4.33,7.19-2.23,4.35C460.79,515.77,474.4,509.77,474.77,509.61Z" transform="translate(-71.77 -450.47)"/><path class="cls-2" d="M456.37,520.78a2.7,2.7,0,0,1-1.47-.36,2.06,2.06,0,0,1-.9-2l0-.2.5-1.6,3.49-7.54a1,1,0,0,0-.57-.36c-.43-.11-1.62-.16-3.34,1.68,0,0-5.4,7.34-7.32,8.3l0,0c-.81.28-3,.34-3.68-.75-.39-.54-.15-1.38,1.37-4.91.25-.58.45-1,.5-1.18l.09-.21c.32-.49,2.23-3.72,2.58-4.32.18-.31,1.57-3,4.14-8l.29-.58a1.87,1.87,0,0,1,1.82-.9h1.23a7.12,7.12,0,0,1,.89.06,1.84,1.84,0,0,1,1.09.49,2,2,0,0,1,1.16,2.24,2.72,2.72,0,0,1-.35,1.19h0a2.3,2.3,0,0,1,.44.25l.48-.27a4.55,4.55,0,0,0,1-.68l.6-.59a19.07,19.07,0,0,1,1.53-1.39,7.24,7.24,0,0,1,3.57-.82,3.58,3.58,0,0,1,2.51.77l.14.17a1.37,1.37,0,0,0,.17.23,1.34,1.34,0,0,1,.29.57,1.49,1.49,0,0,1,.21,1.34,10.35,10.35,0,0,1-.52,1.29L464,510l-1.77,3.47c1.62-.29,5.7-1.69,12.13-4.49l.11-.06c.4-.16.81-.31,1.25-.45s.75-.24,1.07-.36a12.05,12.05,0,0,1,1.32-.4,1,1,0,0,1,1.16.35.86.86,0,0,1,.11.75,1.15,1.15,0,0,1-.17.84,2.25,2.25,0,0,0-.18.35l-.1.24-2.83,1.65-.82.43-.83.44-5.72,2.94c-.39.18-1,.5-1.7.88C463,518.72,458.88,520.78,456.37,520.78Zm-.81-2.2c0,.4.14.49.18.52,1.48.94,8.3-2.73,10.54-3.94.75-.4,1.36-.73,1.75-.91l5.7-2.93.79-.41.82-.44,1-.6-.2.06c-.38.12-.75.25-1.1.4l-.3-.72.31.72-.31-.72.21.76c-12.79,5.58-13.83,4.76-14.28,4.41a1,1,0,0,1-.38-1l.08-.23,2.22-4.36L467,502a7,7,0,0,0,.38-1l-.12-.2-.12-.33a1.08,1.08,0,0,1-.18-.24,2.47,2.47,0,0,0-1.39-.3,5.72,5.72,0,0,0-2.72.57c-.32.25-.81.73-1.28,1.19-.22.22-.43.43-.63.61a6.14,6.14,0,0,1-1.32.92,4.9,4.9,0,0,0-.7.43l-.19.11a1.28,1.28,0,0,1-1.18-.31l-.16-.12a1.27,1.27,0,0,1-1-.54l-.12-.19v-.24a2.48,2.48,0,0,1,.35-1.29,1,1,0,0,0,.14-.51l0-.22c0-.06.08-.27-.51-.62l-.19-.16a.26.26,0,0,0-.18-.06,6.09,6.09,0,0,0-.72-.05h-1.23c-.34,0-.44.07-.44.08l-.27.54c-1.67,3.25-3.92,7.63-4.18,8.08s-2.11,3.57-2.57,4.3c-.09.24-.28.69-.52,1.24a36.33,36.33,0,0,0-1.38,3.53,3.53,3.53,0,0,0,1.75,0l.07,0c1.11-1,5.89-7,6.52-7.83,2.54-2.74,4.78-2.62,5.94-1.71a1.6,1.6,0,0,1,.56,2.11L456,517.18Zm22.33-10.3a.05.05,0,0,0,0,0Zm-10.7-7.71Z" transform="translate(-71.77 -450.47)"/><path class="cls-2" d="M524.38,488.64c-.21,0-1.16-.16-2-.2-2.15,0-4.15,0-6.46,0s-4.57,0-6.8-.09q-3.6,0-7.18.19a52.33,52.33,0,0,1-7.55-.19,34.23,34.23,0,0,1,3.53-4.07c1.28-1.26,3.28-4.64,3-5s-.83-.56-1.73-.56a11,11,0,0,0-2,.18,4.06,4.06,0,0,0-1.73.76,1.39,1.39,0,0,0-.38.43,1.13,1.13,0,0,1-.37.42,19.23,19.23,0,0,1-1.73,2.27q-1,1.14-2,2.37a12,12,0,0,1-3,3.69H463c-.66,0-1.38,0-2.17.09a7.35,7.35,0,0,0-2.41.67,12.5,12.5,0,0,1,1.3.75,3.84,3.84,0,0,0,1.3.57,27.75,27.75,0,0,0,4.33.76c1.4.13,2.89.19,4.45.19,2.15,0,4.27,0,6.38-.1s4.14-.09,6.12-.09a10.53,10.53,0,0,1,1.49.09,8.19,8.19,0,0,0,1.36.1,2.42,2.42,0,0,1,0,2.36c-.41.63-9,14.28-9.4,15.19a11.22,11.22,0,0,0-.87,2.69,6.31,6.31,0,0,0,2,5.07,9.08,9.08,0,0,0,5.81,2.69,16.85,16.85,0,0,0,8.17-1,7.2,7.2,0,0,0,2.85-1.89,5.13,5.13,0,0,0,1.11-2.74,10.22,10.22,0,0,0-1.85.52l-1.86.71a24.57,24.57,0,0,1-6.93,1.51,6.06,6.06,0,0,1-3.53-.47,3.35,3.35,0,0,1-1.3-2.56c0-.5,0-1,.07-1.65a6.61,6.61,0,0,1,.31-1.66,8.28,8.28,0,0,1,.68-1.89c.28-.57.59-1.2.92-1.89.5-.89,1-1.74,1.55-2.56s7.82-11.87,8.48-12.16a6.33,6.33,0,0,1,2.47-.42h1.36c2.56-.13,5.12-.22,7.68-.29s5.68-.57,8.15-.7c1.93-.11,9.84-1.19,11.54-1.41A4.56,4.56,0,0,0,524.38,488.64Z" transform="translate(-71.77 -450.47)"/><path class="cls-2" d="M520.11,489.33c.95-.18-1,.41-2.74.51l-6.74.38q-3.7.19-7.53.28c-2.56.07-5.13.16-7.65.29h-1.36a7,7,0,0,0-2.79.49c-.61.26-3.58,4.45-8.82,12.45h0c-.55.83-1.07,1.7-1.6,2.64-.33.69-.64,1.32-.92,1.87a9.62,9.62,0,0,0-.73,2,7.69,7.69,0,0,0-.34,1.84c-.05.62-.07,1.19-.06,1.82a4.08,4.08,0,0,0,1.66,3.12,6.76,6.76,0,0,0,4,.59,25.36,25.36,0,0,0,7.15-1.57l1.86-.71.52-.18a4.17,4.17,0,0,1-.64,1.15,6.63,6.63,0,0,1-2.55,1.69,16.21,16.21,0,0,1-7.8,1,8.23,8.23,0,0,1-5.33-2.46,5.53,5.53,0,0,1-1.78-4.38,11.21,11.21,0,0,1,.82-2.52c.38-.84,8.81-14.26,9.37-15.13a3.2,3.2,0,0,0,0-3.09l-.22-.43h-.49a7.76,7.76,0,0,1-1.24-.09,11,11,0,0,0-1.6-.1q-3,0-6.15.09c-2.1.07-4.21.1-6.35.1-1.56,0-3-.07-4.39-.19a26.63,26.63,0,0,1-4.21-.74,3.14,3.14,0,0,1-.9-.36c.2,0,.4-.06.59-.08q1.14-.09,2.1-.09h25.42l.22-.19a13.11,13.11,0,0,0,3.12-3.86c.63-.79,1.27-1.55,1.91-2.28a21,21,0,0,0,1.72-2.25,2,2,0,0,0,.48-.6.55.55,0,0,1,.15-.16,3.21,3.21,0,0,1,1.41-.61,7.68,7.68,0,0,1,2.72-.07,17.34,17.34,0,0,1-2.74,4.13,35.64,35.64,0,0,0-3.61,4.16l-.82,1.12,1.38.13a52.48,52.48,0,0,0,7.67.19c2.33-.12,4.73-.19,7.09-.19s4.54.16,6.87.1,7.41-.35,7.89-.53c-.43-.06-2.11-.31-3.39-.43s-2.66-.24-4-.33-6.29-.31-7.34-.37c-2.42,0-4.85.06-7.22.19a52.66,52.66,0,0,1-6-.07,33.05,33.05,0,0,1,2.57-2.85c.5-.49,3.93-4.8,3.14-6a2.67,2.67,0,0,0-2.39-.91,11,11,0,0,0-2.13.2,4.92,4.92,0,0,0-2.06.9,2.17,2.17,0,0,0-.58.68.64.64,0,0,1-.16.17l-.18.2a19.51,19.51,0,0,1-1.67,2.18c-.66.76-1.33,1.56-2,2.39l-.09.14A11,11,0,0,1,488.1,488H463.27c-.68,0-1.42,0-2.23.1a7.8,7.8,0,0,0-2.67.73l-1.47.67,1.44.74a10.78,10.78,0,0,1,1.21.71,4.82,4.82,0,0,0,1.55.67,28.31,28.31,0,0,0,4.45.78,96.13,96.13,0,0,0,10.92.1q3.15-.09,6.11-.09a9,9,0,0,1,1.36.08,6.81,6.81,0,0,0,.95.09,1.52,1.52,0,0,1-.12,1.17c-.08.12-9,14.22-9.47,15.29a13,13,0,0,0-.93,2.95,7.11,7.11,0,0,0,2.2,5.68,9.91,9.91,0,0,0,6.29,2.93,18.89,18.89,0,0,0,2.11.11,17.44,17.44,0,0,0,6.43-1.2,8,8,0,0,0,3.14-2.1c.67-.74,1.59-2.86,1.27-3.57l-.27-.58-.61.11a11.19,11.19,0,0,0-2,.56l-1.86.71a23.71,23.71,0,0,1-6.71,1.46,5.2,5.2,0,0,1-3-.35,2.55,2.55,0,0,1-.94-1.89c0-.49,0-1,.06-1.61a6.49,6.49,0,0,1,.29-1.52,7.4,7.4,0,0,1,.62-1.72c.29-.58.6-1.21.91-1.87.49-.86,1-1.7,1.52-2.5,2.93-4.47,7.58-11.36,8.13-11.87a5.58,5.58,0,0,1,2.17-.36h1.4C498,492.23,518.73,489.6,520.11,489.33Z" transform="translate(-71.77 -450.47)"/><path class="cls-2" d="M505.77,510.79a17.64,17.64,0,0,0-2.11.14,14.05,14.05,0,0,1-1.85.14,8.43,8.43,0,0,1-1.86-.19,12.4,12.4,0,0,1-1.86-.56c-1.81-.76-2.84-1.81-3.09-3.17a5.57,5.57,0,0,1,1.11-4.21,7.53,7.53,0,0,1,2.6-1.85,28,28,0,0,1,4-1.56,30.83,30.83,0,0,1,4.34-1,17.73,17.73,0,0,1,3.65-.24,2,2,0,0,1,1.73.85.72.72,0,0,1-.13.9,1.23,1.23,0,0,1-.86.33,19.42,19.42,0,0,0-2.79.52,31.06,31.06,0,0,0-3.27,1,25.68,25.68,0,0,0-3,1.38,8.73,8.73,0,0,0-2.16,1.51,1.74,1.74,0,0,0-.5,1.51,1.35,1.35,0,0,0,.75,1.14h4.33a14.39,14.39,0,0,1,4.27.76,6.07,6.07,0,0,1,3.27,2,3,3,0,0,1,0,2.89,13.52,13.52,0,0,1-2.41,3.5,32.89,32.89,0,0,1-3.9,3.64,33.71,33.71,0,0,1-4.64,3.17,40.36,40.36,0,0,1-4.58,2.27,9.68,9.68,0,0,1-3.52.9,6.63,6.63,0,0,1-2-.24c-.5-.15-.66-.36-.5-.61,1.9-1,3.53-1.84,4.89-2.51a30.5,30.5,0,0,0,4.52-2.79l2.66-2.36a27.89,27.89,0,0,0,3.09-3.22,7.84,7.84,0,0,0,1.61-2.84C507.77,511.2,507.17,510.79,505.77,510.79Z" transform="translate(-71.77 -450.47)"/><path class="cls-2" d="M493.27,527.38a7.6,7.6,0,0,1-2.22-.28,1.49,1.49,0,0,1-1-.83,1.1,1.1,0,0,1,.12-1l.12-.17.18-.09q2.85-1.53,4.91-2.52a31.21,31.21,0,0,0,4.4-2.72l2.59-2.32a26.42,26.42,0,0,0,3-3.12,7.2,7.2,0,0,0,1.46-2.54c0-.08-.15-.26-1-.26a16.07,16.07,0,0,0-2,.14,10.61,10.61,0,0,1-4-.06,13.12,13.12,0,0,1-2-.6c-2.08-.87-3.28-2.13-3.58-3.76a6.32,6.32,0,0,1,1.24-4.79,7.77,7.77,0,0,1,2.9-2.11,29.49,29.49,0,0,1,4.14-1.61,32,32,0,0,1,4.44-1,18.47,18.47,0,0,1,3.82-.24h0a2.76,2.76,0,0,1,2.31,1.17l.09.15a1.5,1.5,0,0,1-.32,1.8,2.09,2.09,0,0,1-1.39.53,17,17,0,0,0-2.59.49,28.23,28.23,0,0,0-3.19,1,26.41,26.41,0,0,0-2.95,1.33,8.19,8.19,0,0,0-2,1.37.94.94,0,0,0-.28.85.81.81,0,0,0,.18.47h4.12a15.19,15.19,0,0,1,4.5.79,6.84,6.84,0,0,1,3.69,2.28,3.74,3.74,0,0,1,.07,3.66,14.53,14.53,0,0,1-2.55,3.71,35.06,35.06,0,0,1-4,3.72,34.1,34.1,0,0,1-4.75,3.24,42.07,42.07,0,0,1-4.67,2.32A10.44,10.44,0,0,1,493.27,527.38Zm-.86-1.61a8.49,8.49,0,0,0,4.08-.8,41.55,41.55,0,0,0,4.5-2.23,33.66,33.66,0,0,0,4.53-3.1,32.92,32.92,0,0,0,3.81-3.56,13.16,13.16,0,0,0,2.28-3.29,2.21,2.21,0,0,0,0-2.16,5.47,5.47,0,0,0-2.84-1.65,14.09,14.09,0,0,0-4-.72l-4.66-.07a2.09,2.09,0,0,1-1.19-1.74,2.51,2.51,0,0,1,.7-2.16,9.8,9.8,0,0,1,2.37-1.67,28.66,28.66,0,0,1,3.12-1.41,33.71,33.71,0,0,1,3.36-1.07,19.45,19.45,0,0,1,2.91-.54.53.53,0,0,0,.41-.13,1.56,1.56,0,0,0-1.08-.39,17.87,17.87,0,0,0-3.54.23,31.25,31.25,0,0,0-4.22,1,26.61,26.61,0,0,0-3.9,1.52,6.67,6.67,0,0,0-2.33,1.62,4.76,4.76,0,0,0-1,3.59c.2,1.08,1.06,1.93,2.63,2.58a12,12,0,0,0,1.72.53,9.29,9.29,0,0,0,3.44,0,19.28,19.28,0,0,1,2.21-.14,2.75,2.75,0,0,1,2.3.78,1.56,1.56,0,0,1,.25,1.42,8.51,8.51,0,0,1-1.76,3.14,27.9,27.9,0,0,1-3.18,3.31q-1.8,1.62-2.67,2.37a30.88,30.88,0,0,1-4.69,2.91C495,524.45,493.78,525.06,492.41,525.77Z" transform="translate(-71.77 -450.47)"/><path class="cls-3" d="M218.65,568.22c0-1.87,0-3.4-.16-4.9h3l.16,2.92h.12a6.61,6.61,0,0,1,6-3.33,5.63,5.63,0,0,1,5.4,3.62h.08a7.61,7.61,0,0,1,2.12-2.35,6.77,6.77,0,0,1,4.22-1.27c2.52,0,6.26,1.57,6.26,7.85v10.65h-3.39V571.17c0-3.48-1.34-5.57-4.13-5.57a4.45,4.45,0,0,0-4.1,3,5.12,5.12,0,0,0-.27,1.64v11.18h-3.39V570.57c0-2.88-1.34-5-4-5a4.68,4.68,0,0,0-4.29,3.29,4.26,4.26,0,0,0-.28,1.61v10.91h-3.38Z" transform="translate(-71.77 -450.47)"/><path class="cls-3" d="M246.76,582.31h-5.19V571.17c0-3.1-1.09-4.67-3.23-4.67a3.55,3.55,0,0,0-3.25,2.4,4.17,4.17,0,0,0-.23,1.33v12.08h-5.18V570.57c0-1.22-.3-4.07-3.08-4.07a3.8,3.8,0,0,0-3.44,2.68,3.42,3.42,0,0,0-.23,1.32v11.81h-5.18V568.22c0-2-.05-3.45-.16-4.83l-.07-1h4.85l.09,1.58a7.5,7.5,0,0,1,5.32-2,6.55,6.55,0,0,1,5.54,2.87,8.3,8.3,0,0,1,1.54-1.43A7.58,7.58,0,0,1,239.6,562c3.3,0,7.16,2.29,7.16,8.75Zm-3.39-1.8H245v-9.75c0-6.45-4.11-7-5.36-7a5.86,5.86,0,0,0-3.69,1.1A6.85,6.85,0,0,0,234,567l-.26.44h-1.13l-.3-.57a4.7,4.7,0,0,0-4.56-3.05,5.68,5.68,0,0,0-5,2.62,5.19,5.19,0,0,1,3.85-1.73c3,0,4.88,2.31,4.88,5.87v9.94h1.59V570.23a6.31,6.31,0,0,1,.32-1.94,5.38,5.38,0,0,1,5-3.59c3.19,0,5,2.36,5,6.47Zm-23.82,0h1.58v-10a5.1,5.1,0,0,1,.35-2,5.62,5.62,0,0,1,.7-1.41H221l-.17-.86-.11-2.06h-1.22c.07,1.15.1,2.4.1,4Z" transform="translate(-71.77 -450.47)"/><path class="cls-3" d="M255.35,558.24a2.15,2.15,0,0,1-4.29,0,2.07,2.07,0,0,1,2.17-2.06A2,2,0,0,1,255.35,558.24Zm-3.86,23.17V563.32H255v18.09Z" transform="translate(-71.77 -450.47)"/><path class="cls-3" d="M255.86,582.31H250.6V562.42h5.26Zm-3.47-1.8h1.67V564.22h-1.67Zm.76-19.35a2.94,2.94,0,1,1,.08-5.88,2.9,2.9,0,0,1,3,2.94,2.78,2.78,0,0,1-.76,2A3.2,3.2,0,0,1,253.15,561.16Zm.08-4.08a1.17,1.17,0,0,0-1.27,1.16,1.11,1.11,0,0,0,1.19,1.12,1.38,1.38,0,0,0,1-.38.93.93,0,0,0,.26-.71v0A1.11,1.11,0,0,0,253.23,557.08Z" transform="translate(-71.77 -450.47)"/><path class="cls-3" d="M260.71,568.22c0-1.87,0-3.4-.16-4.9h3.07l.2,3h.08a7.06,7.06,0,0,1,6.3-3.4c2.64,0,6.73,1.49,6.73,7.7v10.8h-3.46V571c0-2.91-1.14-5.34-4.41-5.34a4.88,4.88,0,0,0-4.65,3.36,4.43,4.43,0,0,0-.24,1.53v10.88h-3.46Z" transform="translate(-71.77 -450.47)"/><path class="cls-3" d="M277.83,582.31h-5.26V571c0-3-1.18-4.44-3.51-4.44a4,4,0,0,0-3.8,2.74,3.87,3.87,0,0,0-.19,1.25v11.78h-5.26V568.22c0-2-.05-3.45-.15-4.83l-.08-1h4.88l.11,1.64a8.32,8.32,0,0,1,5.63-2c3.52,0,7.63,2.25,7.63,8.6Zm-3.46-1.8H276v-9.9c0-6.31-4.46-6.8-5.83-6.8a6.24,6.24,0,0,0-5.46,2.84,5.79,5.79,0,0,1,4.32-1.91c3.37,0,5.31,2.27,5.31,6.24Zm-12.76,0h1.67v-10a5.4,5.4,0,0,1,.29-1.85,5.61,5.61,0,0,1,.73-1.47h-1.24l-.14-.84-.14-2.15h-1.27c.07,1.15.1,2.4.1,4Z" transform="translate(-71.77 -450.47)"/><path class="cls-3" d="M286.43,558.24a2.15,2.15,0,0,1-4.3,0,2.07,2.07,0,0,1,2.17-2.06A2,2,0,0,1,286.43,558.24Zm-3.86,23.17V563.32H286v18.09Z" transform="translate(-71.77 -450.47)"/><path class="cls-3" d="M286.93,582.31h-5.26V562.42h5.26Zm-3.46-1.8h1.66V564.22h-1.66Zm.75-19.35a2.94,2.94,0,1,1,.08-5.88,2.9,2.9,0,0,1,3,2.94,2.74,2.74,0,0,1-.77,2A3.17,3.17,0,0,1,284.22,561.16Zm.08-4.08a1.17,1.17,0,0,0-1.27,1.16,1.11,1.11,0,0,0,1.19,1.12,1.42,1.42,0,0,0,1-.38.93.93,0,0,0,.26-.71v0A1.11,1.11,0,0,0,284.3,557.08Z" transform="translate(-71.77 -450.47)"/><path class="cls-3" d="M300.13,554.87h3.47v11.29h.08a6.26,6.26,0,0,1,2.48-2.32,7.4,7.4,0,0,1,3.54-.93c2.56,0,6.66,1.49,6.66,7.74v10.76h-3.47V571c0-2.92-1.14-5.38-4.41-5.38a4.94,4.94,0,0,0-4.65,3.29,3.88,3.88,0,0,0-.23,1.57v10.91h-3.47Z" transform="translate(-71.77 -450.47)"/><path class="cls-3" d="M317.25,582.31H312V571c0-3-1.18-4.48-3.51-4.48a4,4,0,0,0-3.8,2.69,3,3,0,0,0-.18,1.27v11.81h-5.27V554h5.27v9.9a7,7,0,0,1,1.24-.82,8.25,8.25,0,0,1,4-1c3.49,0,7.55,2.26,7.55,8.64Zm-3.46-1.8h1.67v-9.86c0-6.35-4.41-6.84-5.76-6.84a6.49,6.49,0,0,0-3.11.82,5.69,5.69,0,0,0-1.64,1.29,5.9,5.9,0,0,1,3.53-1.18c3.37,0,5.31,2.29,5.31,6.28Zm-12.76,0h1.67v-10a4.63,4.63,0,0,1,.31-1.94,5.55,5.55,0,0,1,.8-1.5h-1l-.08-.9V555.77H301Z" transform="translate(-71.77 -450.47)"/><path class="cls-3" d="M339.24,572.22c0,6.69-4.89,9.6-9.49,9.6-5.16,0-9.14-3.59-9.14-9.31,0-6,4.18-9.6,9.45-9.6C335.54,562.91,339.24,566.68,339.24,572.22Zm-15.12.18c0,4,2.4,7,5.79,7s5.78-3,5.78-7c0-3.07-1.61-7-5.71-7S324.12,569,324.12,572.4Z" transform="translate(-71.77 -450.47)"/><path class="cls-3" d="M329.75,582.72c-5.91,0-10-4.2-10-10.21,0-6.18,4.26-10.5,10.35-10.5,5.93,0,10.08,4.2,10.08,10.21C340.14,579.43,334.75,582.72,329.75,582.72Zm.31-18.91c-5.11,0-8.55,3.5-8.55,8.7,0,5,3.31,8.41,8.24,8.41,4.27,0,8.59-2.69,8.59-8.7C338.34,567.19,335,563.81,330.06,563.81Zm-.15,16.44c-3.88,0-6.69-3.3-6.69-7.85,0-3.94,2.09-7.92,6.76-7.92,4.34,0,6.61,3.95,6.61,7.85C336.59,576.85,333.72,580.25,329.91,580.25Zm.07-14c-3.66,0-5,3.3-5,6.13,0,3.51,2.05,6.06,4.89,6.06s4.88-2.58,4.88-6.13C334.79,570.23,333.79,566.27,330,566.27Z" transform="translate(-71.77 -450.47)"/><path class="cls-3" d="M347.79,558.13v5.19h5v2.51h-5v9.75c0,2.24.67,3.51,2.59,3.51a8.22,8.22,0,0,0,2-.22l.16,2.46a8.68,8.68,0,0,1-3.07.45,4.91,4.91,0,0,1-3.74-1.38c-1-1-1.34-2.58-1.34-4.71v-9.86h-2.95v-2.51h2.95V559Z" transform="translate(-71.77 -450.47)"/><path class="cls-3" d="M349.48,582.68a5.8,5.8,0,0,1-4.4-1.67c-1.07-1-1.58-2.75-1.58-5.32v-9h-2.95v-4.3h2.95v-4.13l5.19-1.32v5.45h5v4.3h-5v8.86c0,2.41.8,2.61,1.69,2.61a7.31,7.31,0,0,0,1.79-.19l1.05-.27.27,4.2-.61.24A9.82,9.82,0,0,1,349.48,582.68Zm-7.13-17.75h2.95v10.76c0,2.06.34,3.35,1.07,4.07a4.05,4.05,0,0,0,3.11,1.12,10.23,10.23,0,0,0,2.13-.2l-.05-.75a10.18,10.18,0,0,1-1.18.06c-2.32,0-3.49-1.48-3.49-4.41V564.93h5v-.71h-5v-4.94l-1.59.4v4.54h-2.95Z" transform="translate(-71.77 -450.47)"/><path class="cls-3" d="M358.34,573c.08,4.45,3.07,6.28,6.54,6.28a13.21,13.21,0,0,0,5.28-.93l.59,2.35a16,16,0,0,1-6.34,1.12c-5.87,0-9.38-3.66-9.38-9.12s3.39-9.75,8.94-9.75c6.22,0,7.88,5.19,7.88,8.52a11.51,11.51,0,0,1-.12,1.53Zm10.16-2.35c0-2.09-.9-5.35-4.8-5.35-3.51,0-5,3.07-5.32,5.35Z" transform="translate(-71.77 -450.47)"/><path class="cls-3" d="M364.41,582.68c-6.24,0-10.27-3.93-10.27-10,0-6.27,4-10.65,9.83-10.65,6.06,0,8.78,4.73,8.78,9.42a10.46,10.46,0,0,1-.11,1.48l-.09.79-.82.16H359.31c.52,4,4,4.48,5.57,4.48a12,12,0,0,0,4.94-.87l1-.38,1,4.1-.71.3A17,17,0,0,1,364.41,582.68ZM364,563.81c-4.8,0-8,3.56-8,8.85,0,5.07,3.25,8.22,8.48,8.22a16.21,16.21,0,0,0,5.27-.77l-.15-.62a14.7,14.7,0,0,1-4.65.65c-4.51,0-7.36-2.74-7.44-7.16v-.92h13.49a6.19,6.19,0,0,0,0-.63C371,570.16,370.61,563.81,364,563.81Zm5.41,7.7h-12l.12-1c.37-3,2.43-6.14,6.21-6.14a5.38,5.38,0,0,1,4,1.55,6.66,6.66,0,0,1,1.68,4.72Zm-9.89-1.8h8.06a4.43,4.43,0,0,0-1.11-2.54,3.68,3.68,0,0,0-2.74-1A4.37,4.37,0,0,0,359.49,569.71Z" transform="translate(-71.77 -450.47)"/><path class="cls-3" d="M376.14,554.87h3.47v26.54h-3.47Z" transform="translate(-71.77 -450.47)"/><path class="cls-3" d="M380.51,582.31h-5.26V554h5.26Zm-3.47-1.8h1.67V555.77H377Z" transform="translate(-71.77 -450.47)"/><line class="cls-3" x1="322.9" y1="122.3" x2="441.63" y2="122.3"/><rect class="cls-3" x="322.9" y="120.41" width="118.74" height="3.77"/><line class="cls-3" x1="129.71" y1="122.08" x2="10.98" y2="122.08"/><rect class="cls-3" x="10.98" y="120.2" width="118.74" height="3.77"/></svg>